<?xml version="1.0" encoding="utf-8"?>
<!-- Generator: Adobe Illustrator 23.0.3, SVG Export Plug-In . SVG Version: 6.00 Build 0)  -->
<svg version="1.1" id="Layer_1" xmlns="http://www.w3.org/2000/svg" xmlns:xlink="http://www.w3.org/1999/xlink" x="0px" y="0px"
	 viewBox="0 0 20 20" style="enable-background:new 0 0 20 20;" xml:space="preserve">
<style type="text/css">
	.st0{fill:#2B392C;}
</style>
<g>
	<g>
		<path class="st0" d="M20,10c0-2.7-1.61-5.03-3.92-6.08c0.38,0.84,0.59,1.76,0.59,2.74c0,1.21-0.33,2.35-0.89,3.33
			c0.57,0.98,0.89,2.12,0.89,3.33c0,0.98-0.21,1.91-0.59,2.74C18.39,15.03,20,12.7,20,10"/>
		<path class="st0" d="M4.23,10C3.66,9.02,3.33,7.88,3.33,6.67c0-0.98,0.21-1.91,0.59-2.74C1.61,4.97,0,7.3,0,10
			s1.61,5.03,3.92,6.08c-0.38-0.84-0.59-1.76-0.59-2.74C3.33,12.12,3.66,10.98,4.23,10"/>
		<path class="st0" d="M10,15.77c-0.98,0.57-2.12,0.89-3.33,0.89c-0.98,0-1.91-0.21-2.74-0.59C4.97,18.39,7.3,20,10,20
			c2.7,0,5.03-1.61,6.08-3.92c-0.84,0.38-1.76,0.59-2.74,0.59C12.12,16.67,10.98,16.34,10,15.77"/>
		<path class="st0" d="M7.26,12.74c0.58,1.27,1.54,2.33,2.74,3.03c1.2-0.7,2.17-1.76,2.74-3.03c-0.84,0.38-1.76,0.59-2.74,0.59
			S8.09,13.12,7.26,12.74"/>
		<path class="st0" d="M10,4.23c0.98-0.57,2.12-0.89,3.33-0.89c0.98,0,1.91,0.21,2.74,0.59C15.03,1.61,12.7,0,10,0
			C7.3,0,4.97,1.61,3.92,3.92c0.84-0.38,1.76-0.59,2.74-0.59C7.88,3.33,9.02,3.66,10,4.23"/>
		<path class="st0" d="M12.74,7.26C12.17,5.98,11.2,4.92,10,4.23c-1.2,0.7-2.17,1.76-2.74,3.03C8.09,6.88,9.02,6.67,10,6.67
			C10.98,6.67,11.91,6.88,12.74,7.26"/>
		<path class="st0" d="M12.74,7.26c0.38,0.84,0.59,1.76,0.59,2.74c0,0.98-0.21,1.91-0.59,2.74c1.27-0.58,2.33-1.54,3.03-2.74
			C15.08,8.8,14.02,7.83,12.74,7.26"/>
		<path class="st0" d="M7.26,7.26C5.98,7.83,4.92,8.8,4.23,10c0.7,1.2,1.76,2.17,3.03,2.74C6.88,11.91,6.67,10.98,6.67,10
			C6.67,9.02,6.88,8.09,7.26,7.26"/>
		<path class="st0" d="M10.41,10c0,0.23-0.19,0.41-0.41,0.41c-0.23,0-0.41-0.19-0.41-0.41c0-0.23,0.19-0.41,0.41-0.41
			C10.23,9.59,10.41,9.77,10.41,10"/>
	</g>
</g>
</svg>
