<?xml version="1.0" encoding="utf-8"?>
<!-- Generator: Adobe Illustrator 23.0.3, SVG Export Plug-In . SVG Version: 6.00 Build 0)  -->
<svg version="1.1" id="Layer_1" xmlns="http://www.w3.org/2000/svg" xmlns:xlink="http://www.w3.org/1999/xlink" x="0px" y="0px"
	 viewBox="0 0 18 18" style="enable-background:new 0 0 18 18;" xml:space="preserve">
<style type="text/css">
	.st0{fill:#B5B5B0;}
</style>
<g>
	<g>
		<g>
			<circle class="st0" cx="9" cy="12.23" r="1"/>
		</g>
		<g>
			<path class="st0" d="M17.42,10.04h-0.5c0-4.37-3.55-7.92-7.92-7.92s-7.92,3.55-7.92,7.92h-0.5C0.58,5.4,4.36,1.63,9,1.63
				S17.42,5.4,17.42,10.04z"/>
		</g>
		<g>
			<path class="st0" d="M9,16.38c-3.49,0-6.33-2.84-6.33-6.33S5.51,3.71,9,3.71s6.33,2.84,6.33,6.33S12.49,16.38,9,16.38z M9,4.71
				c-2.94,0-5.33,2.39-5.33,5.33c0,2.94,2.39,5.33,5.33,5.33c2.94,0,5.33-2.39,5.33-5.33C14.33,7.1,11.94,4.71,9,4.71z"/>
		</g>
		<g>
			<g>
				<path class="st0" d="M1.5,13.04L1.5,13.04c-0.66,0-1.2-0.54-1.2-1.2v-3.6c0-0.66,0.54-1.2,1.2-1.2h0c0.66,0,1.2,0.54,1.2,1.2
					v3.6C2.7,12.5,2.16,13.04,1.5,13.04z"/>
			</g>
			<g>
				<path class="st0" d="M16.5,13.04L16.5,13.04c-0.66,0-1.2-0.54-1.2-1.2v-3.6c0-0.66,0.54-1.2,1.2-1.2h0c0.66,0,1.2,0.54,1.2,1.2
					v3.6C17.7,12.5,17.16,13.04,16.5,13.04z"/>
			</g>
		</g>
		<g>
			<rect x="9.83" y="11.98" class="st0" width="4.5" height="0.5"/>
		</g>
	</g>
</g>
</svg>
