<?xml version="1.0" encoding="utf-8"?>
<!-- Generator: Adobe Illustrator 23.0.3, SVG Export Plug-In . SVG Version: 6.00 Build 0)  -->
<svg version="1.1" id="Layer_1" xmlns="http://www.w3.org/2000/svg" xmlns:xlink="http://www.w3.org/1999/xlink" x="0px" y="0px"
	 viewBox="0 0 231 99" style="enable-background:new 0 0 231 99;" xml:space="preserve">
<style type="text/css">
	.st0{fill:#908876;}
</style>
<g>
	<path class="st0" d="M63.14,23.73c-2.72-0.02-5.45-0.01-8.17,0c-4.37,0.01-7.36,2.78-7.72,7.15c-0.01,0.14-0.03,0.28-0.05,0.5
		c-4.21,0-8.35,0-12.5,0c0.25,3.14,2.12,5.68,5.16,6.64c0.72,0.23,1.51,0.35,2.27,0.35c1.74,0.02,3.48,0.02,5.22,0
		c-1.88,1.1-3.76,2.19-5.65,3.29c-7.75,4.5-15.76,9.16-23.57,13.88c-4.72,2.85-8.4,6.52-10.94,10.88
		c-1.97,3.39-1.62,8.08,0.79,10.67c1.24,1.33,2.49,2.67,3.73,3.98c1.14,1.2,2.28,2.41,3.42,3.61l-1.15,0l-2.56,0
		c-1.25,0-2.5,0-3.75,0.01c-2.86,0.02-5.3,1.78-6.22,4.49c-0.94,2.78,0.08,5.81,2.5,7.37c1.12,0.73,2.56,1.15,3.94,1.16
		c3.48,0.02,7.28,0.04,11.96,0.04c2.49,0,4.98,0,7.47-0.01l2.65,0c2.59,0,4.78-1.35,5.99-3.71c0.81-1.57,1.04-3.26,0.7-4.89
		c3.68,2.16,7.46,4.37,11.26,6.58c1.04,0.6,2.19,0.92,3.33,0.92c2.23,0,4.24-1.19,5.39-3.19c1.73-3.01,0.66-6.8-2.43-8.62
		c-5.17-3.04-9.78-5.73-14.06-8.2c0.01-1.83,0.01-3.67,0.01-5.45c0-0.33,0-0.67,0-1c1.76,1.86,4.25,3.03,7,3.04
		c2.65,0,5.11-1.02,6.96-2.88c1.85-1.85,2.86-4.3,2.85-6.89c-0.01-5.36-4.39-9.72-9.76-9.72h0c-0.19,0-0.37,0.02-0.56,0.03
		c2.57-1.79,5.14-3.58,7.7-5.37c2.5-1.74,3.46-4.29,2.64-6.99c-0.6-1.97-2.18-3.47-4.09-4.05c1.93-1.18,3.3-3.27,3.42-5.59
		c0.09-1.7,0.54-3.16,1.94-4.27c1.12,1.03,1.43,2.39,1.51,3.83c0.02,0.41,0,0.82,0,1.23c0,20.88,0,41.76,0,62.64
		c0,0.31,0,0.62,0,0.99c3.62,0,7.2,0,10.87,0c0-0.25,0-0.51,0-0.76c0-21.36,0-42.72,0-64.08C70.66,26.98,67.47,23.76,63.14,23.73z
		 M41.98,36.29c-1.87-0.03-3.93-1.31-4.41-2.77c2.97,0,5.92,0,8.93,0C45.92,35.08,43.86,36.32,41.98,36.29z M47.23,56.66
		c3.75,0,6.81,3.04,6.82,6.78c0.01,3.75-3.07,6.82-6.84,6.82c-0.01,0-0.01,0-0.02,0c-3.74-0.01-6.76-3.06-6.75-6.83
		C40.44,59.65,43.45,56.66,47.23,56.66C47.23,56.66,47.23,56.66,47.23,56.66z M54.19,42.23c0.44,1.45-0.06,2.7-1.51,3.71
		c-5.61,3.92-11.22,7.83-16.84,11.74c-0.21,0.15-0.42,0.3-0.68,0.5c1.77,1.79,2.1,3.97,2.07,6.31c-0.05,4.29,0.01,8.58-0.04,12.87
		c-0.01,0.73,0.24,1.09,0.85,1.45c4.9,2.83,9.79,5.68,14.67,8.55c1.72,1.01,2.29,3.02,1.37,4.61c-0.63,1.1-1.69,1.71-2.83,1.71
		c-0.61,0-1.24-0.17-1.85-0.53c-5.71-3.31-11.4-6.66-17.09-10c-0.98-0.58-1.61-1.42-1.77-2.59c-0.26-1.88-0.55-3.76-0.82-5.64
		c-0.27-1.83-0.53-3.65-0.79-5.49c-1.74,0.55-3.78,1.96-5.29,3.66c0.07,0.11,0.13,0.24,0.21,0.36c3.1,4.91,6.21,9.82,9.3,14.73
		c0.91,1.44,0.96,3,0.19,4.47c-0.68,1.31-1.82,2.11-3.37,2.11c-3.37,0-6.75,0.01-10.12,0.01c-3.98,0-7.96-0.01-11.94-0.03
		c-0.8-0.01-1.7-0.26-2.36-0.69c-1.35-0.87-1.8-2.51-1.31-3.95c0.52-1.52,1.81-2.48,3.45-2.49c1.24-0.01,2.49-0.01,3.73-0.01
		c1.7,0,3.4,0,5.11,0c0.02,0,0.04,0,0.06,0c0.58,0,1.15,0,1.74,0c1.17,0,2.36,0,3.63,0c-0.27-0.31-0.42-0.49-0.59-0.66
		c-2.5-2.64-5.01-5.28-7.51-7.93c-1.24-1.31-2.48-2.63-3.71-3.96c-1.54-1.65-1.72-4.91-0.4-7.19c2.42-4.17,5.87-7.4,9.91-9.84
		c9.96-6.02,20.04-11.81,30.09-17.67C50.2,40.12,50.69,40,51.17,40C52.48,40,53.78,40.89,54.19,42.23z M54.19,31.7
		c-0.09,1.36-0.74,2.44-1.78,3.33c-1.48,1.26-3.23,1.34-5.11,1.23c1.73-2.54,1.99-3.18,2.08-5.33c0.07-1.72,0.81-3.08,2.19-4.11
		c1.36-1.01,3.46-1.24,4.85-0.49C54.77,27.75,54.32,29.65,54.19,31.7z M68.47,53.81c-1.52,0-2.99,0-4.47,0c0,0.76,0,1.44,0,2.18
		c1.52,0,2.99,0,4.45,0c0,1.22,0,2.38,0,3.6c-0.83,0-1.59,0-2.37,0c0,0.75,0,1.43,0,2.19c0.83,0,1.61,0,2.39,0c0,1.2,0,2.32,0,3.54
		c-1.52,0-3,0-4.48,0c0,0.79,0,1.47,0,2.24c1.53,0,3.01,0,4.48,0c0,1.21,0,2.33,0,3.54c-0.83,0-1.61,0-2.39,0c0,0.75,0,1.42,0,2.17
		c0.82,0,1.6,0,2.37,0c0,1.23,0,2.37,0,3.57c-1.52,0-2.98,0-4.45,0c0,0.74,0,1.42,0,2.16c1.52,0,2.98,0,4.45,0c0,1.23,0,2.39,0,3.6
		c-0.82,0-1.59,0-2.36,0c0,0.74,0,1.42,0,2.17c0.83,0,1.61,0,2.37,0c0,1.22,0,2.37,0,3.57c-1.51,0-2.98,0-4.48,0
		c0,0.75,0,1.44,0,2.2c1.52,0,3,0,4.49,0c0,1.2,0,2.32,0,3.47c-2.19,0-4.34,0-6.56,0c0-0.42,0-0.77,0-1.13
		c0-20.2-0.01-40.41,0.01-60.61c0-2.36-0.34-4.55-2.18-6.4c1.46,0,2.74-0.05,4.01,0.01c2.5,0.12,4.64,2.35,4.69,4.89
		c-1.48,0-2.96,0-4.46,0c0,0.75,0,1.42,0,2.16c1.52,0,3,0,4.48,0c0,1.22,0,2.37,0,3.57c-0.82,0-1.59,0-2.36,0c0,0.77,0,1.47,0,2.23
		c0.82,0,1.59,0,2.37,0c0,1.18,0,2.3,0,3.5c-1.52,0-3,0-4.48,0c0,0.77,0,1.46,0,2.21c1.51,0,2.97,0,4.48,0c0,1.21,0,2.35,0,3.58
		c-0.82,0-1.6,0-2.39,0c0,0.75,0,1.41,0,2.16c0.82,0,1.6,0,2.4,0C68.47,51.44,68.47,52.58,68.47,53.81z"/>
	<path class="st0" d="M154.73,44.57l-0.4-1.32c-0.73-2.42-1.47-4.83-2.2-7.24l-0.81-2.64c-0.62-2.02-1.63-3.77-3-5.21
		c-1.85-1.93-4.11-2.97-6.55-3.01c-2.03-0.03-4.22-0.05-6.91-0.05c-1.58,0-3.15,0-4.73,0.01l-0.64,0c-5.21,0.02-9.27,4.18-10.44,8.1
		c-0.73,2.44-1.46,4.89-2.2,7.33c-0.75,2.5-1.5,5-2.25,7.5c0-4.26,0-8.59,0.01-12.87c0.02-4.64-2.01-8.37-5.86-10.8
		c-1.76-1.11-3.67-1.68-5.66-1.69l-3.08-0.01c-2.43-0.01-4.87-0.02-7.3-0.02c-2.79,0-5.24,0.02-7.47,0.05
		c-6.18,0.09-11.43,5.41-11.47,11.62c-0.04,6.91-0.03,13.93-0.02,20.72l0.01,4.18c0,3.21,1.8,5.48,4.8,6.07
		c0.37,0.07,0.74,0.11,1.11,0.11c0.84,0,1.63-0.18,2.36-0.5c0,8.01,0,16.01,0,24.02c0,2.62,0.93,4.65,2.76,6.04
		c1.21,0.92,2.62,1.41,4.07,1.41c0.88,0,1.76-0.17,2.62-0.52c1.09-0.43,2.01-1.09,2.7-1.9c0.54,0.64,1.16,1.1,1.73,1.44
		c1.06,0.63,2.28,0.97,3.52,0.97c3.54,0,6.41-2.62,6.81-6.23c0.05-0.46,0.05-0.88,0.05-1.21l0-0.2c0-7.93,0-15.87,0-23.8
		c0.73,0.32,1.53,0.49,2.36,0.49c0.38,0,0.77-0.04,1.15-0.11c2.66-0.51,4.52-2.58,4.74-5.29c0.03-0.39,0.05-0.79,0.05-1.18
		c0-0.6,0-1.19,0-1.79c0.86,1.03,2.09,1.76,3.52,1.96c0.26,0.04,0.53,0.06,0.8,0.06c0.14,0,0.27-0.01,0.41-0.01l-2.06,7.19
		l-1.08,3.76h3.91h5.04l0,4.14c0,5.38,0,10.77,0.01,16.15c0.01,3.41,2.59,6.09,5.89,6.09c0.76,0,1.52-0.14,2.26-0.42
		c0.8-0.3,1.48-0.73,2.04-1.28c1.07,1.06,2.56,1.67,4.31,1.67c0.29,0,0.59-0.02,0.89-0.05c3.18-0.35,5.23-2.8,5.24-6.25
		c0-3.73,0-7.46,0-11.2l0-4.43v-4.41h3.9h3.82l-0.97-3.7l-1.47-5.57L150.62,59c0.27,0.04,0.54,0.06,0.81,0.06
		c0.6,0,1.21-0.1,1.79-0.3c2.83-0.97,4.44-3.96,3.66-6.81C156.21,49.47,155.46,46.98,154.73,44.57z M111.67,58.81
		c0,0.31-0.01,0.63-0.04,0.94c-0.11,1.4-0.98,2.37-2.35,2.63c-0.2,0.04-0.4,0.06-0.59,0.06c-1.1,0-2.12-0.59-2.56-1.64
		c-0.25-0.6-0.31-1.31-0.32-1.97c-0.02-7.55-0.01-15.09-0.01-22.64c0-0.28,0-0.56,0-0.84c-0.86,0-1.61,0-2.42,0
		c0,0.36,0,0.67,0,0.98c0,17.46,0,34.91,0,52.37c0,0.36,0.01,0.73-0.03,1.08c-0.26,2.34-2.05,3.61-3.88,3.61
		c-0.69,0-1.39-0.18-2.01-0.55c-1.39-0.83-1.94-2.15-1.94-3.79c0.03-9.5,0.01-19,0.01-28.5c0-0.28,0-0.56,0-0.88
		c-0.91,0-1.74,0-2.66,0c0,0.34,0,0.65,0,0.96c0,9.33,0,18.66,0,27.99c0,0.48-0.01,0.97-0.07,1.44c-0.18,1.48-1.06,2.5-2.38,3.03
		c-0.51,0.2-1.03,0.31-1.53,0.31c-0.79,0-1.57-0.26-2.29-0.81c-1.24-0.94-1.59-2.22-1.59-3.69c0-17.55-0.01-35.11-0.01-52.66
		c0-0.3,0-0.61,0-0.92c-0.83,0-1.57,0-2.39,0c0,0.35,0,0.65,0,0.96c0,7.43,0,14.85,0,22.28c0,0.46-0.02,0.92-0.07,1.37
		c-0.18,1.45-1.42,2.5-2.83,2.5c-0.18,0-0.36-0.02-0.54-0.05c-1.6-0.31-2.42-1.34-2.42-3.18c-0.01-8.29-0.03-16.59,0.02-24.88
		c0.03-4.6,3.97-8.63,8.57-8.69c2.48-0.04,4.95-0.05,7.43-0.05c3.45,0,6.91,0.02,10.37,0.04c1.47,0.01,2.86,0.45,4.1,1.23
		c3.04,1.92,4.49,4.69,4.48,8.3C111.65,43.04,111.67,50.93,111.67,58.81z M152.27,55.97c-0.28,0.1-0.57,0.14-0.84,0.14
		c-0.97,0-1.85-0.59-2.33-1.67c-0.32-0.72-0.53-1.5-0.75-2.26c-1.45-4.85-2.88-9.71-4.34-14.56c-0.07-0.22-0.31-0.51-0.5-0.54
		c-0.23-0.03-0.47-0.04-0.71-0.04c-0.32,0-0.65,0.02-0.99,0.02c2.63,10.02,5.25,19.95,7.88,29.98c-2.31,0-4.54,0-6.85,0
		c0,0.33,0,0.59,0,0.85c0,2.17,0,4.34,0,6.51c0,5.21,0,10.41,0,15.62c0,1.94-0.95,3.14-2.61,3.32c-0.2,0.02-0.38,0.03-0.57,0.03
		c-1.96,0-3.15-1.23-3.15-3.35c-0.01-7.43,0-14.85,0-22.28c0-0.27,0-0.55,0-0.81c-0.87,0-1.61,0-2.41,0c0,0.34,0,0.62,0,0.91
		c0,7.26,0,14.51,0,21.77c0,0.43-0.02,0.87-0.07,1.3c-0.12,1.11-0.72,1.87-1.76,2.26c-0.42,0.16-0.83,0.23-1.23,0.23
		c-1.63,0-2.94-1.27-2.94-3.14c-0.01-7.45,0-14.9,0-22.35c0-0.28,0-0.56,0-0.89c-2.71,0-5.3,0-7.99,0
		c2.87-10.01,5.72-19.95,8.6-29.96c-0.34,0-0.65,0.01-0.95,0.01c-0.19,0-0.38,0-0.56-0.02c-0.05,0-0.1-0.01-0.15-0.01
		c-0.41,0-0.61,0.17-0.75,0.65c-1.11,3.85-2.27,7.68-3.42,11.52c-0.52,1.73-1,3.47-1.6,5.17c-0.39,1.1-1.34,1.7-2.36,1.7
		c-0.12,0-0.25-0.01-0.38-0.03c-1.18-0.17-2.15-1.08-2.27-2.29c-0.06-0.6,0.06-1.25,0.23-1.84c1.77-5.97,3.58-11.93,5.36-17.89
		c0.91-3.05,4.06-5.98,7.62-5.99c1.79-0.01,3.57-0.01,5.36-0.01c2.29,0,4.58,0.01,6.86,0.05c1.76,0.03,3.24,0.83,4.46,2.1
		c1.1,1.15,1.85,2.51,2.31,4.04c1,3.29,2.02,6.58,3.01,9.87c0.87,2.87,1.75,5.75,2.54,8.64C154.42,54.12,153.57,55.53,152.27,55.97z
		"/>
	<path class="st0" d="M135.29,23.8l0.06,0c5.48-0.04,9.95-4.52,9.96-10c0.01-2.66-1.04-5.17-2.94-7.08
		c-1.9-1.91-4.41-2.95-7.06-2.95l-0.05,0c-5.49,0.03-9.96,4.51-9.97,10c0,2.66,1.04,5.18,2.95,7.08
		C130.14,22.75,132.64,23.8,135.29,23.8z M135.28,6.72c0.01,0,0.02,0,0.03,0c3.86,0,7.06,3.21,7.05,7.08
		c-0.01,3.86-3.17,7.03-7.03,7.06c-0.02,0-0.03,0-0.04,0c-3.84,0-7.04-3.21-7.04-7.08C128.25,9.92,131.43,6.73,135.28,6.72z"/>
	<path class="st0" d="M229.38,87.56c-0.89-1.44-2.67-3.16-6.06-3.16c-1.94,0-3.84,0.01-5.75,0.01l-1.73,0
		c2.45-2.58,4.97-5.23,7.42-7.87c0.88-0.95,1.55-2.21,1.88-3.55c0.72-2.89,0.17-5.8-1.58-8.41c-3.05-4.53-7.26-8.34-12.88-11.65
		c-7.29-4.3-14.73-8.61-21.92-12.79c-1.99-1.15-3.97-2.3-5.96-3.46c2.29,0.06,4.58,0.02,6.86-0.15c3.28-0.24,6.23-3.77,6.24-7.07
		c-4.28,0-8.56,0-12.89,0c-0.03-0.27-0.05-0.44-0.06-0.61c-0.17-3.92-3.12-7.02-7.02-7.18c-3.06-0.12-6.12-0.06-9.18-0.06
		c-0.6,0-1.21,0.03-1.8,0.15c-3.46,0.67-6.07,3.86-6.06,7.74c0.05,21.96,0.02,43.93,0.02,65.89c0,0.25,0,0.51,0,0.76
		c3.78,0,7.45,0,11.16,0c0-0.37,0-0.68,0-0.99c0-21.75,0-43.49,0-65.24c0-0.29-0.01-0.58,0.01-0.87c0.09-1.39,0.56-2.61,1.56-3.6
		c1.34,1.09,1.87,2.16,1.91,3.75c0.01,0.45,0.06,0.91,0.15,1.36c0.41,2.17,1.72,4.03,3.52,5.08c-2.54,0.71-4.43,3.03-4.48,5.78
		c-0.03,2.24,0.98,4.09,3.03,5.5c2.69,1.86,5.39,3.75,8.07,5.62c-0.22-0.02-0.45-0.04-0.68-0.04l-0.06,0h0
		c-5.47,0-9.94,4.45-9.96,9.93c-0.02,5.49,4.41,9.98,9.86,9.99h0l0.03,0c2.9,0,5.52-1.26,7.36-3.25c0,0.53,0,1.06,0,1.59
		c0,1.76,0,3.52,0,5.28c-4.31,2.51-8.67,5.08-12.89,7.56l-1.41,0.83c-0.42,0.24-0.9,0.55-1.37,0.95c-2.14,1.83-2.79,5-1.55,7.55
		c1.1,2.26,3.21,3.6,5.65,3.6c1.21,0,2.45-0.35,3.58-1c2.48-1.45,4.95-2.89,7.43-4.34c1.39-0.81,2.78-1.63,4.17-2.44
		c-0.43,1.82-0.17,3.71,0.8,5.43c1.3,2.3,3.6,3.57,6.48,3.57l0.05,0c2.61-0.01,5.23-0.02,7.84-0.02c1.61,0,3.23,0,4.84,0
		c1.61,0,3.23,0,4.84,0h0.04c0.47,0,0.94,0,1.4,0c0.48,0,0.95,0,1.43,0c0.74,0,1.36-0.01,1.93-0.02c2.68-0.06,4.8-1.34,5.98-3.61
		C230.75,91.95,230.66,89.63,229.38,87.56z M193.06,31.7c-1.09,1.86-2.69,2.78-4.68,2.8c-2.02,0.01-3.64-0.9-4.72-2.8
		C186.81,31.7,189.88,31.7,193.06,31.7z M169.76,24.2c-1.26,1.5-1.87,3.21-1.87,5.18c0.01,21.22,0.01,42.43,0.01,63.65
		c0,0.31,0,0.62,0,0.96c-2.29,0-4.52,0-6.78,0c0-1.18,0-2.33,0-3.56c1.52,0,3.05,0,4.63,0c0-0.81,0-1.54,0-2.33
		c-1.55,0-3.06,0-4.62,0c0-1.22,0-2.39,0-3.61c0.82,0,1.63,0,2.5,0c0-0.79,0-1.52,0-2.31c-0.82,0-1.63,0-2.5,0c0-1.23,0-2.39,0-3.64
		c1.53,0,3.06,0,4.63,0c0-0.77,0-1.45,0-2.27c-1.59,0-3.1,0-4.64,0c0-1.24,0-2.41,0-3.65c0.82,0,1.64,0,2.51,0c0-0.76,0-1.47,0-2.25
		c-0.81,0-1.62,0-2.49,0c0-1.26,0-2.44,0-3.69c1.52,0,3.03,0,4.6,0c0-0.76,0-1.46,0-2.24c-1.53,0-3.04,0-4.6,0c0-1.26,0-2.45,0-3.7
		c0.82,0,1.63,0,2.49,0c0-0.76,0-1.47,0-2.25c-0.83,0-1.64,0-2.5,0c0-1.24,0-2.41,0-3.67c1.51,0,3.03,0,4.62,0c0-0.76,0-1.45,0-2.24
		c-1.52,0-3.04,0-4.62,0c0-1.27,0-2.44,0-3.7c0.8,0,1.63,0,2.51,0c0-0.77,0-1.46,0-2.25c-0.81,0-1.64,0-2.51,0c0-1.27,0-2.44,0-3.69
		c1.52,0,3.05,0,4.63,0c0-0.76,0-1.45,0-2.24c-1.53,0-3.06,0-4.63,0c0-1.27,0-2.44,0-3.7c0.82,0,1.65,0,2.52,0c0-0.77,0-1.46,0-2.25
		c-0.83,0-1.66,0-2.52,0c0-1.27,0-2.44,0-3.68c1.54,0,3.07,0,4.64,0c0-0.77,0-1.45,0-2.25c-1.55,0-3.08,0-4.61,0
		c0.12-3.02,2.78-5.04,5.03-5.03c1.25,0.01,2.5,0,3.82,0C169.9,23.98,169.84,24.1,169.76,24.2z M175.84,29.83
		c-0.19-1.63-0.31-3.26-1.42-4.6c-0.28-0.33-0.56-0.66-0.87-1.03c3.4-1.3,7.08,1.07,7.22,4.63c0.08,2.12,0.71,4.01,2.17,5.59
		C179.37,35.07,176.22,33.23,175.84,29.83z M183.03,69.48c-0.01,0-0.02,0-0.02,0c-3.84-0.01-6.94-3.16-6.92-7.04
		c0.01-3.88,3.14-6.99,7.01-6.99c0.02,0,0.03,0,0.05,0c3.82,0.02,6.98,3.23,6.95,7.05C190.06,66.38,186.92,69.48,183.03,69.48z
		 M227.01,92.75c-0.71,1.38-1.92,1.99-3.42,2.02c-0.62,0.01-1.24,0.02-1.87,0.02c-0.94,0-1.89-0.01-2.83-0.01c-0.01,0-0.02,0-0.04,0
		c-3.23,0-6.45-0.01-9.68-0.01c-2.62,0-5.24,0-7.86,0.02c-0.01,0-0.02,0-0.03,0c-1.7,0-3.08-0.6-3.91-2.07
		c-0.91-1.61-0.82-3.29,0.18-4.87c3.12-4.96,6.25-9.9,9.37-14.86c0.11-0.18,0.22-0.37,0.33-0.55c-0.9-1.31-3.18-2.94-5.39-3.83
		c-0.12,0.79-0.25,1.56-0.36,2.33c-0.41,2.88-0.83,5.77-1.22,8.65c-0.2,1.46-0.86,2.56-2.15,3.32c-5.75,3.34-11.48,6.71-17.22,10.06
		c-0.7,0.41-1.41,0.6-2.09,0.6c-1.26,0-2.39-0.68-3-1.95c-0.65-1.34-0.31-3.05,0.82-4.02c0.29-0.25,0.62-0.46,0.95-0.65
		c5.02-2.96,10.04-5.91,15.08-8.84c0.51-0.29,0.67-0.62,0.67-1.19c-0.02-4.75,0.02-9.5-0.03-14.25c-0.02-2.04,0.5-3.85,1.83-5.4
		c0.06-0.07,0.1-0.16,0.18-0.29c-0.52-0.36-1.02-0.72-1.53-1.08c-5.45-3.8-10.9-7.62-16.36-11.41c-1.08-0.75-1.78-1.67-1.76-3.04
		c0.03-1.74,1.49-3.11,3.15-3.11c0.26,0,0.53,0.03,0.79,0.11c0.46,0.12,0.91,0.32,1.32,0.56c9.41,5.47,18.84,10.92,28.22,16.44
		c4.69,2.76,8.85,6.17,11.93,10.76c1.25,1.86,1.71,3.89,1.17,6.05c-0.2,0.8-0.62,1.65-1.18,2.25c-3.74,4.03-7.54,8-11.32,11.99
		c-0.21,0.22-0.41,0.45-0.76,0.84c0.49,0,0.77,0,1.06,0c2.5,0,5,0,7.5,0c1.91,0,3.82,0,5.73-0.01c0.01,0,0.01,0,0.02,0
		c1.49,0,2.74,0.45,3.55,1.76C227.6,90.29,227.65,91.52,227.01,92.75z"/>
	<path class="st0" d="M94.53,21.08L94.53,21.08l0.04,0c5.61,0,10.18-4.56,10.19-10.16c0.01-5.62-4.52-10.21-10.09-10.23l-0.05,0
		c-5.65,0-10.26,4.57-10.27,10.18C84.34,16.48,88.9,21.07,94.53,21.08z M94.62,3.64c0.01,0,0.02,0,0.03,0
		c3.95,0.02,7.16,3.28,7.15,7.28c-0.01,4.02-3.21,7.22-7.24,7.22c-0.01,0-0.02,0-0.03,0c-4.02-0.01-7.25-3.25-7.24-7.26
		C87.3,6.86,90.56,3.64,94.62,3.64z"/>
</g>
</svg>
