<?xml version="1.0" encoding="utf-8"?>
<!-- Generator: Adobe Illustrator 23.0.3, SVG Export Plug-In . SVG Version: 6.00 Build 0)  -->
<svg version="1.1" id="Layer_1" xmlns="http://www.w3.org/2000/svg" xmlns:xlink="http://www.w3.org/1999/xlink" x="0px" y="0px"
	 viewBox="0 0 202 126" style="enable-background:new 0 0 202 126;" xml:space="preserve">
<style type="text/css">
	.st0{opacity:0.5;}
	.st1{fill:#2B392C;}
</style>
<g class="st0">
	<path class="st1" d="M98.43,24.16c7.92-3.01,16.27-4.54,24.82-4.54c8.33,0,16.48,1.45,24.23,4.32c0.26,0.1,0.46,0.27,0.59,0.49
		c4.88-0.26,10.38-2.81,8.62-7.27C155.22,13.42,140.35,1,123.05,1c-18.31,0-30.4,11.08-32.95,15.76c-2.05,3.74,2.69,7.19,7.85,7.75
		C98.07,24.36,98.23,24.24,98.43,24.16z M118.22,8.41l-1.4,0.16l2.41-1.63l1.87,1.87l1.27-1.27h-1.42l-1.59-1.56l2.42-1.99l1.2-1.2
		l1.2,1.2l2.42,1.99l-1.59,1.56h-1.42l1.27,1.27l1.87-1.87l2.41,1.63l-1.4-0.16l-1.59,1.68l0.66,0.66h1.56l6.76,4.2h-8.06
		l-4.07,4.07l-4.07-4.07h-8.06l6.76-4.2h1.56l0.66-0.66L118.22,8.41z"/>
	<path class="st1" d="M101.52,40.97c6.35,2.81,13.72,4.29,21.44,4.29c7.82,0,15.29-1.52,21.69-4.4c-6.88-2.28-14.07-3.44-21.4-3.44
		C115.8,37.43,108.5,38.62,101.52,40.97z M108.4,42.49c-0.23,0.28-0.57,0.43-0.91,0.43c-0.26,0-0.52-0.09-0.74-0.27L106,42.04
		c-0.29-0.24-0.45-0.59-0.43-0.96c0.02-0.37,0.21-0.71,0.52-0.92l0.75-0.5c0.54-0.36,1.27-0.21,1.63,0.32
		c0.25,0.37,0.26,0.84,0.06,1.21C108.74,41.6,108.71,42.11,108.4,42.49z M112.59,41.65c0.49,0.42,0.56,1.16,0.14,1.65
		c-0.23,0.27-0.56,0.42-0.9,0.42c-0.27,0-0.54-0.09-0.76-0.28l-1.6-1.35c-0.28-0.24-0.44-0.6-0.41-0.97
		c0.02-0.37,0.22-0.71,0.53-0.91l2.08-1.36c0.54-0.35,1.27-0.2,1.62,0.34c0.35,0.54,0.2,1.27-0.34,1.62l-0.77,0.5L112.59,41.65z
		 M118.22,44.02c-0.23,0.32-0.59,0.5-0.96,0.5c-0.23,0-0.47-0.07-0.67-0.21l-2.69-1.89c-0.32-0.23-0.51-0.6-0.5-0.99
		c0.01-0.39,0.22-0.76,0.56-0.96l3.62-2.23c0.55-0.34,1.27-0.17,1.61,0.38c0.34,0.55,0.17,1.27-0.38,1.61l-2.11,1.3l1.24,0.87
		C118.47,42.75,118.59,43.49,118.22,44.02z M121.46,42.78h-1.94c-0.65,0-1.17-0.52-1.17-1.17c0-0.65,0.52-1.17,1.17-1.17h1.94
		c0.65,0,1.17,0.52,1.17,1.17C122.63,42.26,122.1,42.78,121.46,42.78z M137.45,39.98c0.36-0.54,1.09-0.68,1.63-0.32l0.75,0.5
		c0.31,0.21,0.5,0.55,0.52,0.92c0.02,0.37-0.14,0.73-0.43,0.96l-0.75,0.61c-0.22,0.18-0.48,0.27-0.74,0.27
		c-0.34,0-0.68-0.15-0.91-0.43c-0.31-0.38-0.34-0.89-0.13-1.3C137.2,40.82,137.2,40.36,137.45,39.98z M132.62,39.19
		c0.35-0.54,1.08-0.7,1.62-0.34l2.08,1.36c0.31,0.2,0.51,0.54,0.53,0.91c0.02,0.37-0.13,0.73-0.41,0.97l-1.6,1.35
		c-0.22,0.19-0.49,0.28-0.76,0.28c-0.33,0-0.66-0.14-0.9-0.42c-0.42-0.49-0.36-1.23,0.14-1.65l0.39-0.33l-0.77-0.5
		C132.42,40.46,132.26,39.74,132.62,39.19z M126.73,38.6c0.34-0.55,1.06-0.72,1.61-0.38l3.62,2.23c0.34,0.21,0.54,0.57,0.56,0.96
		c0.01,0.39-0.17,0.77-0.5,0.99l-2.69,1.89c-0.2,0.14-0.44,0.21-0.67,0.21c-0.37,0-0.73-0.17-0.96-0.5
		c-0.37-0.53-0.25-1.26,0.28-1.63l1.24-0.87l-2.11-1.3C126.56,39.87,126.39,39.15,126.73,38.6z M124.47,40.44h1.94
		c0.65,0,1.17,0.52,1.17,1.17c0,0.65-0.52,1.17-1.17,1.17h-1.94c-0.65,0-1.17-0.52-1.17-1.17
		C123.29,40.96,123.82,40.44,124.47,40.44z"/>
	<path class="st1" d="M187.07,88.09c-0.97-0.44-2.51-0.94-4.43-1.49l-0.13,6.31c-0.01,0.35-0.17,0.68-0.45,0.9
		c-0.21,0.16-0.46,0.25-0.72,0.25c-0.09,0-0.17-0.01-0.26-0.03l-33.93-7.56c-0.54-0.12-0.92-0.6-0.92-1.14v-7.02
		c0-0.01,0-0.01,0-0.02c-1.36-0.46-2.22-1.21-2.43-2.91c-0.04-0.32-1.95-12.38-0.33-15.62c0.54-1.09,0.42-2.17,1.76-2.24
		c2.18-0.12,3.07-1.51,3.47-3.34c0.5-2.32,1.07-4.65,1.23-7c0.18-2.6-0.47-4.49-2.57-5.16c-0.11,0.14-0.24,0.27-0.42,0.35
		c-6.99,3.43-15.29,5.24-24,5.24c-8.7,0-17-1.81-24-5.24c-0.18-0.09-0.33-0.22-0.44-0.38c-1.85,0.52-2.68,1.58-2.77,3.62
		c-0.15,3.36,0.46,6.63,1.59,9.78c0.39,1.07,1.13,1.94,2.38,2c1.68,0.09,1.81,1.03,2.47,2.43c1.44,3.07,0.15,15.86-0.01,16.76
		c-0.21,1.18-0.93,1.68-2.08,2.01v6.72c0,0.55-0.38,1.02-0.92,1.14l-33.93,7.56c-0.08,0.02-0.17,0.03-0.26,0.03
		c-0.26,0-0.52-0.09-0.72-0.25c-0.28-0.22-0.44-0.55-0.45-0.9l-0.12-6.03c-2.08,0.58-3.54,1.04-4.73,1.43
		c-5.73,1.86-4.24,1.4-8.41,2.14c-2.23,0.39-2.21-1.29-1.35-2.24c4.59-5.08,9.4-9.97,14.12-14.92c0.38-0.4,0.94-0.66,1.46-0.88
		c2.41-1.06,4.87-2,7.23-3.15c2.16-1.05,4.17-2.48,5.24-4.69c1.37-2.81,3.44-4.97,5.65-7.07c1.38-1.31,2.74-2.65,3.97-4.1
		c1.05-1.25,1.74-2.7,1.19-4.46c-0.07-0.24,0.28-0.77,0.56-0.94c3.71-2.2,7.42-4.39,10.02-7.96c-1.02-1.01-1.09-3.04,1.77-3.94
		c6.99-2.2,14.76-2.95,22.78-2.95c7.82,0,15.38,0.78,22.24,2.81c0.3,0.09,0.56,0.2,0.8,0.33c0.02-0.35,0.03-0.7,0.05-1.06l0,0v0
		c0.02-0.32,0.03-0.64,0.05-0.96c-0.01,0.01-0.03,0.01-0.04,0.02l0.02-8.25c-7.38-2.69-15.15-4.05-23.08-4.05
		c-8.26,0-16.34,1.48-23.99,4.39c-0.03,0.01-0.07,0.02-0.11,0.03l0.09,7.88c0,0.72,0,1.15,0,1.7c-1-0.74-1.76-0.27-2.5,0.31
		c-0.65,0.52-1.23,1.16-1.95,1.56c-4.8,2.66-9.62,5.27-14.46,7.86c-0.47,0.25-1.1,0.33-1.64,0.28c-4.28-0.4-7.84,0.73-10.44,4.41
		c-3.41,4.84-7.97,8.47-12.95,11.54c-5.98,3.69-12.09,7.15-18.1,10.79C25.43,79.87,14.45,88.1,5.27,98.37
		c-7.42,8.3-9.5,27.63,16.29,27.63c59.64,0,179.7,0.01,180.16,0.01C201.66,125.56,202.37,94.94,187.07,88.09z M104.96,34.16
		c-0.23,0.25-0.54,0.37-0.86,0.37c-0.29,0-0.57-0.1-0.8-0.32c-0.47-0.44-0.5-1.18-0.05-1.66l2.25-2.4c0.44-0.47,1.18-0.5,1.66-0.05
		s0.5,1.18,0.05,1.66L104.96,34.16z M108.47,33.9c-0.31,0-0.63-0.13-0.86-0.37c-0.44-0.47-0.42-1.22,0.06-1.66l2.66-2.48
		c0.47-0.44,1.21-0.42,1.66,0.06c0.44,0.47,0.42,1.22-0.06,1.66l-2.66,2.48C109.05,33.8,108.76,33.9,108.47,33.9z M116.53,30.35
		l-2.67,2.49c-0.23,0.21-0.51,0.32-0.8,0.32c-0.31,0-0.63-0.13-0.86-0.37c-0.44-0.47-0.42-1.22,0.06-1.66l2.67-2.49
		c0.47-0.44,1.21-0.42,1.66,0.06C117.02,29.17,117,29.91,116.53,30.35z M133.73,32.79c-0.23,0.25-0.54,0.37-0.86,0.37
		c-0.29,0-0.57-0.1-0.8-0.32l-2.67-2.49c-0.47-0.44-0.5-1.18-0.06-1.66c0.44-0.47,1.18-0.5,1.66-0.06l2.67,2.49
		C134.14,31.57,134.17,32.31,133.73,32.79z M138.31,33.53c-0.23,0.25-0.54,0.37-0.86,0.37c-0.29,0-0.57-0.1-0.8-0.32l-2.66-2.48
		c-0.47-0.44-0.5-1.18-0.06-1.66c0.44-0.47,1.18-0.5,1.66-0.06l2.66,2.48C138.72,32.31,138.75,33.06,138.31,33.53z M142.62,34.21
		c-0.23,0.21-0.51,0.32-0.8,0.32c-0.31,0-0.63-0.12-0.86-0.37l-2.25-2.4c-0.44-0.47-0.42-1.21,0.05-1.66s1.21-0.42,1.66,0.05
		l2.25,2.4C143.12,33.03,143.1,33.77,142.62,34.21z M145.53,33.73c-0.22,0.2-0.5,0.3-0.78,0.3c-0.32,0-0.64-0.13-0.87-0.39
		L143,32.68c-0.43-0.48-0.39-1.22,0.09-1.66c0.48-0.43,1.22-0.39,1.66,0.09l0.87,0.96C146.05,32.56,146.01,33.3,145.53,33.73z
		 M145.75,27.64c0.33,0.56,0.15,1.28-0.41,1.61l-2.47,1.47c-0.19,0.11-0.4,0.17-0.6,0.17c-0.4,0-0.79-0.2-1.01-0.57
		c-0.33-0.56-0.15-1.28,0.41-1.61l2.47-1.47C144.7,26.9,145.42,27.08,145.75,27.64z M142.82,25.88c0.34,0.55,0.16,1.27-0.39,1.61
		l-3.58,2.19c-0.19,0.12-0.4,0.17-0.61,0.17c-0.39,0-0.78-0.2-1-0.56c-0.34-0.55-0.16-1.27,0.39-1.61l3.58-2.19
		C141.76,25.15,142.48,25.33,142.82,25.88z M139.12,24.42c0.34,0.55,0.18,1.27-0.37,1.62l-4.93,3.11c-0.19,0.12-0.41,0.18-0.62,0.18
		c-0.39,0-0.77-0.19-0.99-0.55c-0.34-0.55-0.18-1.27,0.37-1.62l4.93-3.11C138.05,23.71,138.77,23.88,139.12,24.42z M127.56,26.69
		l5.36-3.38c0.55-0.35,1.27-0.18,1.62,0.37c0.34,0.55,0.18,1.27-0.37,1.62l-5.36,3.38c-0.19,0.12-0.41,0.18-0.62,0.18
		c-0.39,0-0.77-0.19-0.99-0.55C126.85,27.76,127.01,27.04,127.56,26.69z M122.96,23.38c1.83,0,3.31,1.93,3.31,4.31
		s-1.48,4.31-3.31,4.31c-1.83,0-3.31-1.93-3.31-4.31S121.13,23.38,122.96,23.38z M111.39,23.68c0.35-0.55,1.07-0.71,1.62-0.37
		l5.36,3.38c0.55,0.35,0.71,1.07,0.37,1.62c-0.22,0.35-0.6,0.55-0.99,0.55c-0.21,0-0.43-0.06-0.62-0.18l-5.36-3.38
		C111.21,24.95,111.04,24.23,111.39,23.68z M106.81,24.42c0.34-0.55,1.07-0.71,1.62-0.37l4.93,3.11c0.55,0.35,0.71,1.07,0.37,1.62
		c-0.22,0.35-0.6,0.55-0.99,0.55c-0.21,0-0.43-0.06-0.62-0.18l-4.93-3.11C106.63,25.7,106.46,24.97,106.81,24.42z M103.1,25.88
		c0.34-0.55,1.06-0.73,1.61-0.39l3.58,2.19c0.55,0.34,0.73,1.06,0.39,1.61c-0.22,0.36-0.61,0.56-1,0.56c-0.21,0-0.42-0.06-0.61-0.17
		l-3.58-2.19C102.94,27.16,102.76,26.43,103.1,25.88z M100.17,27.64c0.33-0.56,1.05-0.74,1.61-0.41l2.47,1.47
		c0.56,0.33,0.74,1.05,0.41,1.61c-0.22,0.37-0.61,0.57-1.01,0.57c-0.2,0-0.41-0.05-0.6-0.17l-2.47-1.47
		C100.02,28.91,99.84,28.19,100.17,27.64z M100.1,32.08l0.87-0.96c0.43-0.48,1.17-0.52,1.66-0.09c0.48,0.43,0.52,1.17,0.09,1.66
		l-0.87,0.96c-0.23,0.26-0.55,0.39-0.87,0.39c-0.28,0-0.56-0.1-0.78-0.3C99.7,33.3,99.67,32.56,100.1,32.08z M98.15,113.78
		l-4.14,4.14l-4.14-4.14h-8.2l6.87-4.27h1.59l0.67-0.67l-1.62-1.71l-1.42,0.16l2.45-1.66l1.9,1.9l1.29-1.29h-1.45l-1.62-1.59
		l2.46-2.02l1.22-1.22l1.22,1.22l2.46,2.02l-1.62,1.59h-1.45l1.29,1.29l1.9-1.9l2.45,1.66l-1.42-0.16l-1.62,1.71l0.67,0.67h1.59
		l6.87,4.27H98.15z"/>
	<path class="st1" d="M180.2,91.43l0.11-5.47c-1.49-0.39-3.13-0.8-4.86-1.22c0,0.07,0.02,0.14,0.06,0.21l1.05,1.8
		c0.21,0.37-0.14,0.81-0.54,0.68l-3.75-1.18c-0.1-0.03-0.2-0.03-0.29,0l-3.37,1.16c-0.29,0.1-0.6-0.11-0.62-0.42l-0.09-2.27
		c-0.01-0.17-0.1-0.32-0.25-0.39l-2.74-1.45c-0.23-0.12-0.29-0.37-0.21-0.58c-1.67-0.36-3.32-0.72-4.94-1.07c0,0,0,0,0,0
		c-0.22,1.28-2.07,2.03-4.14,1.67c-2.07-0.35-3.57-1.67-3.35-2.95c0.02-0.1,0.05-0.2,0.09-0.3c-1.37-0.29-2.63-0.56-3.76-0.8v5.53
		L180.2,91.43z"/>
	<path class="st1" d="M97.77,84.39v-5.26c-1.42,0.29-2.79,0.57-4.1,0.85c0.21,1.27-1.29,2.59-3.35,2.94
		c-1.9,0.32-3.62-0.28-4.05-1.37c-1.79,0.38-3.46,0.75-5.02,1.09c-0.04,0.1-0.11,0.19-0.22,0.24l-2.74,1.45
		c-0.15,0.08-0.24,0.23-0.25,0.39l-0.09,2.27c-0.01,0.31-0.32,0.52-0.62,0.42l-3.37-1.16c-0.09-0.03-0.2-0.03-0.29,0l-3.75,1.18
		c-0.41,0.13-0.76-0.31-0.54-0.68l0.93-1.58c-1.62,0.4-3.02,0.76-4.25,1.08l0.11,5.19L97.77,84.39z"/>
</g>
</svg>
