<?xml version="1.0" encoding="utf-8"?>
<!-- Generator: Adobe Illustrator 23.0.3, SVG Export Plug-In . SVG Version: 6.00 Build 0)  -->
<svg version="1.1" id="Layer_1" xmlns="http://www.w3.org/2000/svg" xmlns:xlink="http://www.w3.org/1999/xlink" x="0px" y="0px"
	 viewBox="0 0 20 18" style="enable-background:new 0 0 20 18;" xml:space="preserve">
<style type="text/css">
	.st0{fill:#FFFFFF;}
</style>
<g>
	<g>
		<g>
			<path class="st0" d="M17.52,17.42H2.48L0.67,4.79h18.66L17.52,17.42z M3.21,16.58h13.58l1.56-10.95H1.64L3.21,16.58z"/>
		</g>
		<g>
			<path class="st0" d="M14.63,5.21h-0.84c0-2.09-1.7-3.79-3.79-3.79s-3.79,1.7-3.79,3.79H5.37c0-2.55,2.08-4.63,4.63-4.63
				S14.63,2.66,14.63,5.21z"/>
		</g>
		<g>
			<path class="st0" d="M6.63,16.79c-0.11,0-0.2-0.08-0.21-0.19L5.58,5.23C5.57,5.11,5.66,5.01,5.77,5C5.89,4.99,5.99,5.08,6,5.19
				l0.84,11.37c0.01,0.12-0.08,0.22-0.19,0.23C6.64,16.79,6.64,16.79,6.63,16.79z"/>
		</g>
		<g>
			<path class="st0" d="M13.37,16.79c0,0-0.01,0-0.02,0c-0.12-0.01-0.2-0.11-0.19-0.23L14,5.19c0.01-0.12,0.09-0.2,0.23-0.19
				c0.12,0.01,0.2,0.11,0.19,0.23L13.58,16.6C13.57,16.71,13.48,16.79,13.37,16.79z"/>
		</g>
		<g>
			<rect x="9.79" y="5.21" class="st0" width="0.42" height="11.79"/>
		</g>
		<g>
			<rect x="2.84" y="13.84" class="st0" width="14.32" height="0.42"/>
		</g>
		<g>
			<rect x="2.42" y="10.9" class="st0" width="15.16" height="0.42"/>
		</g>
		<g>
			<rect x="2" y="7.95" class="st0" width="16" height="0.42"/>
		</g>
	</g>
</g>
</svg>
