<?xml version="1.0" encoding="utf-8"?>
<!-- Generator: Adobe Illustrator 23.0.3, SVG Export Plug-In . SVG Version: 6.00 Build 0)  -->
<svg version="1.1" id="Layer_1" xmlns="http://www.w3.org/2000/svg" xmlns:xlink="http://www.w3.org/1999/xlink" x="0px" y="0px"
	 viewBox="0 0 18 18" style="enable-background:new 0 0 18 18;" xml:space="preserve">
<style type="text/css">
	.st0{fill:#FFFFFF;}
</style>
<g>
	<g>
		<g>
			<path class="st0" d="M9,17.42c-4.64,0-8.42-3.78-8.42-8.42S4.36,0.58,9,0.58S17.42,4.36,17.42,9S13.64,17.42,9,17.42z M9,1.42
				c-4.18,0-7.58,3.4-7.58,7.58s3.4,7.58,7.58,7.58s7.58-3.4,7.58-7.58S13.18,1.42,9,1.42z"/>
		</g>
		<g>
			<path class="st0" d="M9,10.47c-1.74,0-3.16-1.42-3.16-3.16S7.26,4.16,9,4.16s3.16,1.42,3.16,3.16S10.74,10.47,9,10.47z M9,4.58
				c-1.51,0-2.74,1.23-2.74,2.74S7.49,10.05,9,10.05s2.74-1.23,2.74-2.74S10.51,4.58,9,4.58z"/>
		</g>
		<g>
			<path class="st0" d="M15.1,14.63c-1.49-1.86-3.7-2.92-6.08-2.92s-4.59,1.06-6.08,2.92l-0.33-0.26c1.57-1.96,3.9-3.08,6.4-3.08
				s4.83,1.12,6.4,3.08L15.1,14.63z"/>
		</g>
	</g>
</g>
</svg>
