<?xml version="1.0" encoding="utf-8"?>
<!-- Generator: Adobe Illustrator 23.0.3, SVG Export Plug-In . SVG Version: 6.00 Build 0)  -->
<svg version="1.1" id="Layer_1" xmlns="http://www.w3.org/2000/svg" xmlns:xlink="http://www.w3.org/1999/xlink" x="0px" y="0px"
	 viewBox="0 0 170 42" style="enable-background:new 0 0 170 42;" xml:space="preserve">
<style type="text/css">
	.st0{fill:#FFFFFF;}
</style>
<g>
	<g>
		<g>
			<g>
				<path class="st0" d="M20.26,35.05c0.26-0.81,0.41-1.66,0.48-2.52c0.14-1.73-0.08-3.51-0.56-5.23c-0.24-0.86-0.55-1.7-0.91-2.52
					c-0.09-0.21-0.19-0.41-0.28-0.61l-0.3-0.64c-0.2-0.42-0.4-0.85-0.59-1.28c-0.77-1.72-1.42-3.05-2.11-4.84
					c-0.68-1.76-1.23-3.85-1.39-5.75c-0.15-1.89,0.2-4.5,1.12-6.19c0.27-0.5,0.6-0.96,0.97-1.38c-0.62-0.63-1.74-1.8-5.41-1.26
					c-3.4,0.51-8.22,1.62-10.15,9.56c-0.52,2.14,0.7,3.55,1.75,3.93c1.21,0.44,2.41,0.27,3.14,0.08c0.21-0.06,0.22-0.35,0.02-0.43
					c-0.81-0.28-2.04-0.87-2.12-1.96c-0.12-1.73,1.04-3.69,2.75-4.86c2.76-1.89,7.08,0.14,5.32,2.11C9.06,14.54,7.51,17.14,7,19.43
					c-0.43,1.9,1.13,3.71,2.88,2.96c5.36-2.28,4.29,8.4,3.22,12.12c-0.38,1.27-1.2,4.23-1.32,5.03c-0.41,2.86,3.3,1.57,4.93,0.42
					c0.24-0.17,0.55-0.4,0.9-0.68c0.6-0.59,1.14-1.23,1.58-1.95C19.64,36.63,20,35.86,20.26,35.05z"/>
			</g>
			<g>
				<path class="st0" d="M25.03,1.15c-4.15,0.48-5.99,1.45-7,2.32c-0.09,0.08-0.18,0.16-0.27,0.25c-0.05,0.05-0.09,0.09-0.14,0.14
					c-0.06,0.06-0.11,0.12-0.16,0.17c-0.17,0.19-0.31,0.36-0.44,0.52C16.66,5,16.35,5.49,16.11,6c-0.77,1.66-0.86,3.55-0.61,5.35
					c0.26,1.81,0.81,3.57,1.49,5.28c0.67,1.71,1.48,3.38,2.34,5.02c0.22,0.41,0.43,0.82,0.66,1.22l0.33,0.61
					c0.11,0.22,0.23,0.43,0.34,0.65c0.43,0.87,0.81,1.77,1.11,2.69c0.6,1.85,0.95,3.81,0.88,5.81c-0.02,0.47-0.06,0.95-0.12,1.42
					c-0.03,0.23,0.25,0.36,0.41,0.18c0.86-0.99,1.68-2.05,2.37-3.15c2.93-4.65,4.41-7.44-2.97-17.55c-2.4-3.29-1.19-5.98,2.85-6.41
					c2.41-0.26,8.42-0.04,6.09,4.49c-0.93,1.82-2.5,2.44-4.16,2.5c-1.08,0.04-1.78-0.15-2.19-0.33c-0.18-0.08-0.35,0.12-0.26,0.3
					c0.35,0.63,1.26,1.58,3.59,1.7c4.64,0.24,7.1-1.85,8.61-5.48C38.83,5.52,34.63,0.04,25.03,1.15z"/>
			</g>
		</g>
	</g>
	<g>
		<path class="st0" d="M44.49,9.6H44.1c-1.05,0-1.56-0.58-1.56-1.65V6.13c0-1.07,0.51-1.65,1.56-1.65h0.39v-0.8h1.03v0.8h0.39
			c1.05,0,1.56,0.58,1.56,1.65v1.82c0,1.07-0.51,1.65-1.56,1.65h-0.39v0.75h-1.03V9.6z M44.49,5.41H44.1
			c-0.33,0-0.52,0.18-0.52,0.66v1.95c0,0.48,0.19,0.67,0.52,0.67h0.39V5.41z M45.52,5.41v3.28h0.39c0.33,0,0.52-0.19,0.52-0.67V6.07
			c0-0.48-0.19-0.66-0.52-0.66H45.52z"/>
		<path class="st0" d="M53.47,10.35h-1.06l-0.18-1.21h-1.29l-0.18,1.21h-0.96l1.07-6.67h1.53L53.47,10.35z M51.08,8.24h1.01
			l-0.5-3.37L51.08,8.24z"/>
		<path class="st0" d="M55.87,10.35V3.69h2.93v0.95h-1.89v1.7h0.61c1.05,0,1.58,0.58,1.58,1.65v0.71c0,1.07-0.53,1.65-1.58,1.65
			H55.87z M57.53,9.4c0.33,0,0.53-0.15,0.53-0.63V7.93c0-0.48-0.2-0.63-0.53-0.63h-0.61v2.1H57.53z"/>
		<path class="st0" d="M64.83,5.33V6.2c0,1.07-0.51,1.65-1.56,1.65h-0.5v2.5h-1.05V3.69h1.54C64.31,3.69,64.83,4.27,64.83,5.33z
			 M62.77,4.64V6.9h0.5c0.33,0,0.51-0.15,0.51-0.63v-1c0-0.48-0.18-0.63-0.51-0.63H62.77z"/>
		<path class="st0" d="M68.3,10.35h-1.08V3.69h0.93v4.22l0.38-1.47l0.86-2.75h1.15v6.67H69.6V5.66L69.17,7.3L68.3,10.35z"/>
		<path class="st0" d="M74.57,7.7l-0.32,0.61v2.05h-1.05V3.69h1.05v2.9l1.37-2.9h1.05L75.2,6.66l1.46,3.69h-1.08L74.57,7.7z"/>
		<path class="st0" d="M82.43,10.35h-1.06L81.2,9.14h-1.29l-0.18,1.21h-0.96l1.07-6.67h1.53L82.43,10.35z M80.04,8.24h1.01
			l-0.5-3.37L80.04,8.24z"/>
	</g>
	<g>
		<path class="st0" d="M47.77,32.39h-0.48c1.9-2.11,3.48-4.95,3.48-9v-4.51c0-2.27-1.84-4.11-4.11-4.11s-4.11,1.84-4.11,4.11v5.34
			c0,0.77,0.62,1.4,1.4,1.4c0.77,0,1.4-0.62,1.4-1.4v-5.34c0-0.73,0.59-1.32,1.32-1.32c0.73,0,1.32,0.59,1.32,1.32v4.51
			c0,4.5-2.45,7.12-4.84,9.09c-0.03,0.02-0.04,0.06-0.06,0.08c-0.45,0.23-0.77,0.69-0.77,1.23c0,0.77,0.62,1.4,1.4,1.4h4.07
			c0.73,0,1.32,0.59,1.32,1.32c0,0.73-0.59,1.32-1.32,1.32h-4.78c-0.77,0-1.4,0.62-1.4,1.4s0.62,1.4,1.4,1.4h4.78
			c2.27,0,4.11-1.84,4.11-4.11S50.04,32.39,47.77,32.39z"/>
		<path class="st0" d="M57.47,14.76c-2.39,0-4.33,1.94-4.33,4.33v17.46c0,2.39,1.94,4.33,4.33,4.33s4.33-1.94,4.33-4.33V19.09
			C61.81,16.71,59.86,14.76,57.47,14.76z M59.01,36.55c0,0.85-0.69,1.54-1.54,1.54c-0.85,0-1.54-0.69-1.54-1.54V19.09
			c0-0.85,0.69-1.54,1.54-1.54c0.85,0,1.54,0.69,1.54,1.54V36.55z"/>
		<path class="st0" d="M79.72,14.76c-2.39,0-4.33,1.94-4.33,4.33v17.46c0,2.39,1.94,4.33,4.33,4.33c2.39,0,4.33-1.94,4.33-4.33
			V19.09C84.05,16.71,82.11,14.76,79.72,14.76z M81.26,36.55c0,0.85-0.69,1.54-1.54,1.54c-0.85,0-1.54-0.69-1.54-1.54V19.09
			c0-0.85,0.69-1.54,1.54-1.54c0.85,0,1.54,0.69,1.54,1.54V36.55z"/>
		<path class="st0" d="M100.72,14.76c-2.39,0-4.33,1.94-4.33,4.33v17.46c0,2.39,1.94,4.33,4.33,4.33c2.39,0,4.33-1.94,4.33-4.33
			V19.09C105.06,16.71,103.11,14.76,100.72,14.76z M102.27,36.55c0,0.85-0.69,1.54-1.54,1.54c-0.85,0-1.54-0.69-1.54-1.54V19.09
			c0-0.85,0.69-1.54,1.54-1.54c0.85,0,1.54,0.69,1.54,1.54V36.55z"/>
		<path class="st0" d="M115.01,37.73h-3.24c-0.85,0-1.54-0.69-1.54-1.54V35.1h4.22c0.77,0,1.4-0.62,1.4-1.4s-0.62-1.4-1.4-1.4h-4.22
			V17.83h2.7c0.21,0,0.39,0.17,0.39,0.39v5.71c0,0.77,0.62,1.4,1.4,1.4c0.77,0,1.4-0.62,1.4-1.4v-5.71c0-1.75-1.43-3.18-3.18-3.18
			h-3.75c-0.96,0-1.74,0.78-1.74,1.74v19.41c0,2.39,1.94,4.33,4.33,4.33h3.24c0.77,0,1.4-0.62,1.4-1.4
			C116.4,38.36,115.78,37.73,115.01,37.73z"/>
		<path class="st0" d="M72.13,15.12c-0.49-0.23-1.06-0.16-1.48,0.18c-2.74,2.25-6.39,5.91-6.39,11.59v12.12c0,0.77,0.62,1.4,1.4,1.4
			s1.4-0.62,1.4-1.4V26.9c0-3.11,1.39-5.47,3.09-7.31v19.43c0,0.77,0.62,1.4,1.4,1.4c0.77,0,1.4-0.62,1.4-1.4V16.38
			C72.93,15.84,72.62,15.35,72.13,15.12z"/>
		<path class="st0" d="M94.43,15.04h-8.43c-0.77,0-1.4,0.62-1.4,1.4c0,0.77,0.62,1.4,1.4,1.4h2.82v21.19c0,0.77,0.62,1.4,1.4,1.4
			s1.4-0.62,1.4-1.4V17.83h2.82c0.77,0,1.4-0.62,1.4-1.4C95.83,15.66,95.2,15.04,94.43,15.04z"/>
		<path class="st0" d="M164.61,14.76c-2.39,0-4.33,1.94-4.33,4.33v17.46c0,2.39,1.94,4.33,4.33,4.33c2.39,0,4.33-1.94,4.33-4.33
			V19.09C168.94,16.71,166.99,14.76,164.61,14.76z M166.15,36.55c0,0.85-0.69,1.54-1.54,1.54c-0.85,0-1.54-0.69-1.54-1.54V19.09
			c0-0.85,0.69-1.54,1.54-1.54c0.85,0,1.54,0.69,1.54,1.54V36.55z"/>
		<path class="st0" d="M130.58,14.98h-2.6c-0.95,0-1.73,0.78-1.73,1.73v22.42c0,0.77,0.62,1.4,1.4,1.4s1.4-0.62,1.4-1.4v-3.94
			c0.01-0.01,0.01-0.01,0.02-0.02c2.73-2.24,5.86-5.55,5.86-11.24v-4.62C134.92,16.92,132.97,14.98,130.58,14.98z M132.13,23.93
			c0,3.39-1.38,5.71-3.09,7.48V17.77h1.54c0.85,0,1.54,0.69,1.54,1.54V23.93z"/>
		<path class="st0" d="M144.74,15.19c-0.77,0-1.4,0.62-1.4,1.4V31.5c-2.19-2.35-3.24-4.81-3.24-7.63v-7.28c0-0.77-0.62-1.4-1.4-1.4
			c-0.77,0-1.4,0.62-1.4,1.4v7.28c0,4.33,1.98,8.09,6.03,11.47v0.72c0,0.85-0.69,1.54-1.54,1.54h-2.68c-0.77,0-1.4,0.62-1.4,1.4
			c0,0.77,0.62,1.4,1.4,1.4h2.68c2.39,0,4.33-1.94,4.33-4.33V16.59C146.13,15.82,145.51,15.19,144.74,15.19z"/>
		<path class="st0" d="M156.24,15.12c-0.77,0-1.4,0.62-1.4,1.4v15.84h-3.19V16.52c0-0.77-0.62-1.4-1.4-1.4c-0.77,0-1.4,0.62-1.4,1.4
			v22.47c0,0.77,0.62,1.4,1.4,1.4c0.77,0,1.4-0.62,1.4-1.4v-3.84h3.19v3.84c0,0.77,0.62,1.4,1.4,1.4s1.4-0.62,1.4-1.4V16.52
			C157.64,15.74,157.01,15.12,156.24,15.12z"/>
	</g>
</g>
</svg>
