<?xml version="1.0" encoding="utf-8"?>
<!-- Generator: Adobe Illustrator 23.0.3, SVG Export Plug-In . SVG Version: 6.00 Build 0)  -->
<svg version="1.1" id="Layer_1" xmlns="http://www.w3.org/2000/svg" xmlns:xlink="http://www.w3.org/1999/xlink" x="0px" y="0px"
	 viewBox="0 0 26 68" style="enable-background:new 0 0 26 68;" xml:space="preserve">
<style type="text/css">
	.st0{opacity:0.5;}
	.st1{fill:#2B392C;}
</style>
<g class="st0">
	<polygon class="st1" points="24.64,24.09 1.04,24.09 6.12,42.55 19.56,42.55 	"/>
	<polygon class="st1" points="12.84,67 17.91,48.55 7.77,48.55 	"/>
	<path class="st1" d="M12.86,11.67c2.52,0,4.63-0.71,5.28-1.67H7.58C8.23,10.97,10.35,11.67,12.86,11.67z"/>
	<path class="st1" d="M12.86,12.67c-1.81,0-3.43-0.24-4.65-0.64c-1.03,1.12-1.67,2.61-1.67,4.26c0,3.47,2.82,6.29,6.29,6.29
		c3.47,0,6.29-2.82,6.29-6.29c0-1.64-0.63-3.13-1.66-4.25C16.26,12.43,14.65,12.67,12.86,12.67z"/>
	<rect x="6.34" y="6.01" class="st1" width="13" height="3"/>
	<path class="st1" d="M21.93,4.01c-1.12-0.96-4.75-3.67-9.07-3.67c-4.32,0-7.95,2.71-9.07,3.67l-0.02,1l2.08,0.67V5.01h14v0.66
		l2.05-0.66L21.93,4.01z"/>
</g>
</svg>
