<?xml version="1.0" encoding="utf-8"?>
<!-- Generator: Adobe Illustrator 23.0.3, SVG Export Plug-In . SVG Version: 6.00 Build 0)  -->
<svg version="1.1" id="Layer_1" xmlns="http://www.w3.org/2000/svg" xmlns:xlink="http://www.w3.org/1999/xlink" x="0px" y="0px"
	 viewBox="0 0 202 126" style="enable-background:new 0 0 202 126;" xml:space="preserve">
<style type="text/css">
	.st0{opacity:0.5;}
	.st1{fill:#2B392C;}
</style>
<g class="st0">
	<path class="st1" d="M103.81,42.92c6.2,2.75,13.4,4.19,20.95,4.19c7.64,0,14.94-1.48,21.19-4.3c-6.72-2.23-13.74-3.36-20.91-3.36
		C117.76,39.46,110.63,40.62,103.81,42.92z"/>
	<path class="st1" d="M187.4,88.96c-1.24-0.69-2.7-1.32-4.32-1.91l-0.14,6.62c-0.01,0.34-0.17,0.67-0.44,0.88
		c-0.2,0.16-0.45,0.24-0.71,0.24c-0.08,0-0.17-0.01-0.25-0.03l-33.15-7.38c-0.52-0.12-0.9-0.58-0.9-1.12v-6.85
		c-1.59-0.45-3.02-1.18-3.23-2.87c-0.04-0.32-1.9-12.1-0.32-15.27c0.53-1.07,1.27-2.12,2.58-2.19c2.13-0.12,3-1.48,3.39-3.27
		c0.49-2.26,1.04-4.54,1.2-6.84c0.18-2.54-0.45-4.38-2.51-5.04c-0.1,0.14-0.24,0.26-0.41,0.34c-6.83,3.35-14.94,5.12-23.45,5.12
		c-8.51,0-16.61-1.77-23.45-5.12c-0.18-0.09-0.32-0.22-0.43-0.37c-1.81,0.51-2.62,1.54-2.71,3.54c-0.14,3.28,0.45,6.48,1.56,9.56
		c0.38,1.05,1.11,1.9,2.33,1.96c1.64,0.09,2.63,1,3.27,2.38c1.41,3,0.15,15.5-0.01,16.37c-0.21,1.18-1.5,1.67-2.89,1.99v6.54
		c0,0.54-0.37,1-0.9,1.12l-33.15,7.38c-0.08,0.02-0.17,0.03-0.25,0.03c-0.25,0-0.5-0.08-0.71-0.24c-0.27-0.21-0.43-0.53-0.44-0.88
		l-0.12-5.89c-2.03,0.57-3.46,1.02-4.62,1.4c-5.6,1.82-4.14,1.37-8.22,2.09c-2.18,0.38-2.16-1.26-1.32-2.19
		c4.48-4.97,9.18-9.74,13.8-14.58c0.37-0.39,0.92-0.64,1.43-0.86c2.35-1.03,4.75-1.95,7.06-3.07c2.11-1.03,4.07-2.43,5.12-4.58
		c1.33-2.75,3.36-4.85,5.52-6.91c1.34-1.28,2.68-2.59,3.88-4c1.03-1.22,1.7-2.64,1.17-4.36c-0.07-0.23,0.27-0.75,0.55-0.92
		c3.63-2.15,7.25-4.29,9.79-7.78c-0.99-0.98-1.07-2.97,1.73-3.85c6.83-2.15,14.42-2.89,22.26-2.89c7.64,0,15.02,0.76,21.73,2.74
		c0.29,0.09,0.55,0.2,0.79,0.32c0.02-0.34,0.03-0.69,0.05-1.04v0v0c0.02-0.31,0.03-0.62,0.05-0.94c-0.01,0.01-0.03,0.01-0.04,0.02
		l0.02-8.06c-7.22-2.63-14.8-3.96-22.55-3.96c-8.08,0-15.96,1.44-23.44,4.29c-0.03,0.01-0.07,0.02-0.1,0.03l0.09,7.7
		c0,0.7,0,1.13,0,1.67c-0.98-0.72-1.72-0.26-2.44,0.31c-0.64,0.51-1.21,1.14-1.91,1.53c-4.69,2.6-9.4,5.15-14.13,7.68
		c-0.46,0.24-1.08,0.33-1.6,0.28c-4.18-0.39-7.66,0.71-10.2,4.31c-3.33,4.73-7.79,8.27-12.66,11.28
		c-5.84,3.61-11.82,6.99-17.69,10.55c-11.5,6.97-22.24,15.02-31.21,25.05C2.51,107.11,0.48,126,25.67,126
		c58.27,0,175.58,0.01,176.04,0.01C201.66,125.57,201.71,96.93,187.4,88.96z M124.76,25.73c1.79,0,3.24,1.88,3.24,4.21
		s-1.45,4.21-3.24,4.21s-3.24-1.88-3.24-4.21S122.97,25.73,124.76,25.73z"/>
	<path class="st1" d="M81.77,89.44v-5.32c-5.64,1.27-9.65,2.25-12.62,3.04l0.1,5.07L81.77,89.44z"/>
	<path class="st1" d="M180.68,92.22l0.12-5.94c-3.78-1.18-8.19-2.17-12.64-3.04v6.19L180.68,92.22z"/>
	<path class="st1" d="M100.14,85.34V80.2c-1.22,0.25-2.39,0.49-3.53,0.73c0.36,0.2,0.61,0.49,0.67,0.83c0.14,0.84-0.84,1.7-2.2,1.93
		c-1.36,0.23-2.57-0.26-2.71-1.1c-0.05-0.28,0.03-0.56,0.21-0.83c-1.32,0.28-2.58,0.55-3.79,0.81v5.29L100.14,85.34z"/>
	<path class="st1" d="M161.14,87.87v-5.91c-1.5-0.26-2.96-0.51-4.37-0.75c0.56,0.38,0.88,0.89,0.79,1.39
		c-0.14,0.84-1.36,1.33-2.71,1.1c-1.36-0.23-2.34-1.09-2.2-1.93c0.09-0.51,0.57-0.89,1.24-1.06c-1.48-0.26-2.85-0.52-4.1-0.77v5.41
		L161.14,87.87z"/>
	<path class="st1" d="M100.79,26.5c7.74-2.95,15.9-4.44,24.26-4.44c8.14,0,16.11,1.42,23.67,4.22c0.25,0.09,0.44,0.26,0.57,0.47
		c4.22-0.28,7.27-2.77,5.57-7.1C153.41,15.99,141.75,1,124.85,1C106.96,1,98.01,14.7,95.51,19.26c-2,3.65,0.14,7,4.81,7.57
		C100.44,26.69,100.6,26.57,100.79,26.5z M119.69,9.73L118.2,9.9l2.57-1.74l1.99,1.99l1.36-1.36h-1.52l-1.7-1.67L123.48,5l1.28-1.28
		L126.03,5l2.58,2.12l-1.7,1.67h-1.52l1.36,1.36l1.99-1.99l2.57,1.74l-1.49-0.17l-1.7,1.79l0.7,0.7h1.67l7.22,4.48h-8.61l-4.35,4.35
		l-4.35-4.35h-8.61l7.22-4.48h1.67l0.7-0.7L119.69,9.73z"/>
</g>
</svg>
