<?xml version="1.0" encoding="utf-8"?>
<!-- Generator: Adobe Illustrator 23.0.3, SVG Export Plug-In . SVG Version: 6.00 Build 0)  -->
<svg version="1.1" id="Layer_1" xmlns="http://www.w3.org/2000/svg" xmlns:xlink="http://www.w3.org/1999/xlink" x="0px" y="0px"
	 viewBox="0 0 231 99" style="enable-background:new 0 0 231 99;" xml:space="preserve">
<style type="text/css">
	.st0{fill:#908876;}
</style>
<g>
	<g>
		<g>
			<path class="st0" d="M100.72,49.91c0-1.12,0-2.11,0-3.15c1.06,0,2.07,0,3.15,0c0,8.95,0,17.87,0,26.82c1.05,0,2.05,0,3.15,0
				c0-0.29,0-0.57,0-0.86c0-10.72,0-21.44,0-32.16c0-2.29,1.42-4.24,3.48-4.74c0.57-0.14,1.17-0.16,1.76-0.16
				c10.22-0.01,20.44,0.05,30.66-0.04c3.47-0.03,5.28,2.51,5.27,5.27c-0.05,10.58-0.01,21.17-0.03,31.75c0,0.69,0.07,1.01,0.91,1.09
				c2.05,0.21,3.76,2.1,3.8,4.19c0.07,2.96,0.07,5.92,0,8.88c-0.06,2.32-2.16,4.19-4.62,4.22c-2.16,0.03-4.32,0.01-6.4,0.01
				c-0.47,1.07-0.92,2.07-1.37,3.1c5.11,0,10.29,0,15.59,0c0-0.23,0-0.46,0-0.7c0-21.35,0-42.7,0.01-64.05
				c0-0.53-0.16-0.8-0.62-1.06c-12.78-7.34-25.55-14.7-38.32-22.07c-0.45-0.26-0.77-0.27-1.22-0.01
				c-12.77,7.37-25.54,14.72-38.32,22.07c-0.47,0.27-0.65,0.55-0.65,1.1c0.02,11.79,0.01,23.58,0.01,35.37c0,0.27,0,0.54,0,0.86
				c-1.05,0-2.06,0-3.15,0c0-0.26,0-0.5,0-0.75c0-12.47,0-24.95-0.01-37.42c0-0.51,0.13-0.79,0.6-1.06
				c13.87-8,27.74-16.01,41.59-24.03c0.41-0.24,0.7-0.21,1.1,0.02c13.86,8.02,27.72,16.03,41.6,24.02c0.51,0.29,0.58,0.65,0.58,1.16
				c-0.01,21.87-0.01,43.75-0.01,65.62c0,0.29,0,0.59,0,0.97c1.57,0,3.11,0,4.68,0c0,1.08,0,2.07,0,3.11c-31.61,0-63.21,0-94.85,0
				c0-1,0-1.99,0-3.06c5.74,0,11.49,0,17.24,0c-0.42-1.03-0.79-1.99-1.22-2.93c-0.07-0.15-0.4-0.24-0.61-0.25
				c-1.23-0.05-2.47,0.04-3.67-0.14c-2.22-0.32-3.81-2.14-3.84-4.38c-0.05-3.57-0.03-7.15,0-10.72c0.01-0.55,0.16-1.15,0.41-1.63
				c3.82-7.2,7.67-14.39,11.5-21.58c0.71-1.34,1.72-2.27,3.23-2.59c0.42-0.09,0.86-0.1,1.29-0.1c2.16-0.01,4.32,0,6.49,0
				C100.14,49.91,100.38,49.91,100.72,49.91z M80.11,76.82c0,0.31,0,0.52,0,0.72c0,2.94-0.02,5.87,0.02,8.81
				c0.01,1,0.59,1.49,1.64,1.53c0.86,0.03,1.73-0.02,2.59,0.02c0.49,0.02,0.68-0.13,0.82-0.63c1.04-3.7,4.34-5.85,7.94-5.73
				c3.39,0.11,6.1,2.29,7.16,5.56c0.19,0.59,0.41,0.81,1.07,0.8c8.01-0.03,16.02-0.02,24.03-0.01c0.56,0,0.82-0.12,0.98-0.71
				c1.18-4.35,6.04-6.65,10.05-5.26c2.62,0.9,4.26,2.78,5.09,5.38c0.15,0.45,0.33,0.6,0.8,0.59c1.89-0.03,3.78,0,5.67-0.02
				c1.25-0.01,1.77-0.56,1.78-1.81c0-2.39,0-4.78,0-7.17c0-1.67-0.41-2.08-2.11-2.08c-22.23,0-44.47,0-66.7,0
				C80.69,76.82,80.45,76.82,80.11,76.82z M81.29,73.57c6.53,0,12.95,0,19.38,0c0-6.85,0-13.64,0-20.47
				c-0.21-0.01-0.39-0.03-0.56-0.03c-2.23,0-4.46,0.02-6.69-0.01c-0.93-0.01-1.54,0.37-1.96,1.18c-3.26,6.2-6.54,12.4-9.82,18.59
				C81.53,73.06,81.43,73.28,81.29,73.57z M129.22,60.93c5.27,0,10.48,0,15.72,0c0-3.17,0-6.29,0-9.44c-5.26,0-10.47,0-15.72,0
				C129.22,54.67,129.22,57.79,129.22,60.93z M125.97,51.5c-5.3,0-10.51,0-15.73,0c0,3.18,0,6.3,0,9.42c5.28,0,10.5,0,15.73,0
				C125.97,57.76,125.97,54.65,125.97,51.5z M125.95,73.58c0-3.17,0-6.29,0-9.41c-5.27,0-10.49,0-15.72,0c0,3.15,0,6.26,0,9.41
				C115.47,73.58,120.68,73.58,125.95,73.58z M144.93,73.58c0-3.17,0-6.29,0-9.4c-5.27,0-10.49,0-15.72,0c0,3.15,0,6.26,0,9.4
				C134.46,73.58,139.67,73.58,144.93,73.58z M129.22,38.85c0,3.2,0,6.31,0,9.41c5.27,0,10.5,0,15.76,0c0-2.6,0.01-5.14,0-7.69
				c-0.01-1.18-0.58-1.72-1.78-1.72c-4.44,0-8.88,0-13.31,0C129.68,38.85,129.48,38.85,129.22,38.85z M125.95,48.28
				c0-3.18,0-6.28,0-9.43c-0.29,0-0.54,0-0.79,0c-4.32,0-8.65,0-12.97,0c-1.49,0-2.01,0.51-2.01,1.99c0,2.25,0,4.51,0,6.76
				c0,0.22,0,0.44,0,0.68C115.49,48.28,120.69,48.28,125.95,48.28z M127.46,94.16c-0.37-0.84-0.77-1.62-1.05-2.45
				c-0.17-0.51-0.37-0.7-0.94-0.69c-3.5,0.03-7,0.02-10.51,0.02c-4.59,0-9.19,0-13.78,0.01c-0.23,0-0.61,0.03-0.67,0.16
				c-0.45,0.97-0.84,1.97-1.25,2.96C108.67,94.16,118.06,94.16,127.46,94.16z M133.92,94.19c2.68,0,4.76-2.05,4.76-4.67
				c0-2.72-2.03-4.77-4.72-4.78c-2.68-0.01-4.8,2.04-4.78,4.63C129.19,92.18,131.17,94.19,133.92,94.19z M92.79,84.74
				c-2.66,0-4.75,2.01-4.76,4.59c-0.02,2.81,2.01,4.86,4.78,4.86c2.63-0.01,4.71-2.04,4.74-4.63C97.58,86.85,95.5,84.74,92.79,84.74
				z"/>
			<path class="st0" d="M107.05,30.88c-0.01-0.25-0.03-0.47-0.03-0.69c0-4.1,0.01-8.19-0.01-12.29c0-0.44,0.13-0.69,0.51-0.92
				c2.85-1.69,5.69-3.4,8.53-5.12c0.36-0.22,0.62-0.21,0.98,0.01c2.83,1.72,5.68,3.42,8.51,5.15c0.21,0.13,0.45,0.43,0.45,0.65
				c0.02,4.35,0.01,8.69,0.01,13.04c0,0.04-0.02,0.09-0.05,0.18C119.66,30.88,113.38,30.88,107.05,30.88z M122.84,27.73
				c0-2.82,0.01-5.52-0.02-8.23c0-0.19-0.22-0.43-0.4-0.54c-1.1-0.68-2.22-1.34-3.33-2c-0.3-0.18-0.61-0.34-1.01-0.57
				c0,0.93,0,1.72,0,2.51c0,2.73,0,5.46,0,8.19c0,0.28-0.1,0.63,0.38,0.63C119.9,27.73,121.33,27.73,122.84,27.73z M114.89,16.4
				c-1.55,0.92-3.03,1.79-4.49,2.7c-0.15,0.09-0.21,0.43-0.21,0.65c-0.02,2.34-0.01,4.68-0.01,7.03c0,0.29,0,0.58,0,0.91
				c1.62,0,3.15,0,4.71,0C114.89,23.94,114.89,20.23,114.89,16.4z"/>
			<path class="st0" d="M140.23,54.68c0,1.08,0,2.07,0,3.1c-2.09,0-4.15,0-6.26,0c0-1.01,0-2.04,0-3.1
				C136.05,54.68,138.11,54.68,140.23,54.68z"/>
			<path class="st0" d="M121.22,54.69c0,1.06,0,2.08,0,3.1c-2.1,0-4.16,0-6.26,0c0-1.04,0-2.05,0-3.1
				C117.05,54.69,119.11,54.69,121.22,54.69z"/>
			<path class="st0" d="M114.96,70.39c0-1.05,0-2.04,0-3.07c2.08,0,4.14,0,6.25,0c0,1,0,2,0,3.07
				C119.15,70.39,117.08,70.39,114.96,70.39z"/>
			<path class="st0" d="M140.23,67.34c0,1.04,0,2.03,0,3.07c-2.09,0-4.15,0-6.26,0c0-1,0-2.01,0-3.07
				C136.02,67.34,138.09,67.34,140.23,67.34z"/>
			<path class="st0" d="M133.95,45.1c0-1.04,0-2.03,0-3.06c2.09,0,4.14,0,6.26,0c0,1,0,2.01,0,3.06
				C138.14,45.1,136.07,45.1,133.95,45.1z"/>
			<path class="st0" d="M121.21,45.13c-2.09,0-4.14,0-6.23,0c0-1.02,0-2.03,0-3.08c2.06,0,4.12,0,6.23,0
				C121.21,43.05,121.21,44.05,121.21,45.13z"/>
			<path class="st0" d="M135.51,87.93c0,1.05,0,2.02,0,3.05c-1.02,0-2.03,0-3.1,0c0-0.99,0-2,0-3.05
				C133.43,87.93,134.44,87.93,135.51,87.93z"/>
			<path class="st0" d="M91.23,91c0-1.06,0-2.05,0-3.07c1.05,0,2.05,0,3.11,0c0,1.02,0,2.03,0,3.07C93.29,91,92.29,91,91.23,91z"/>
		</g>
	</g>
</g>
</svg>
