<?xml version="1.0" encoding="utf-8"?>
<!-- Generator: Adobe Illustrator 23.0.3, SVG Export Plug-In . SVG Version: 6.00 Build 0)  -->
<svg version="1.1" id="Layer_1" xmlns="http://www.w3.org/2000/svg" xmlns:xlink="http://www.w3.org/1999/xlink" x="0px" y="0px"
	 viewBox="0 0 18 18" style="enable-background:new 0 0 18 18;" xml:space="preserve">
<style type="text/css">
	.st0{fill:#FFFFFF;}
</style>
<g>
	<g>
		<g>
			<path class="st0" d="M8.9,7.09h2.09V4.54H9.36c-1.31,0-2.38,1.06-2.38,2.38v4.17c0,1.31,1.06,2.38,2.38,2.38h1.62v-2.55H8.9V7.09
				z"/>
		</g>
		<g>
			<path class="st0" d="M8.98,17.43c-4.64,0-8.42-3.78-8.42-8.42s3.78-8.42,8.42-8.42s8.42,3.78,8.42,8.42S13.63,17.43,8.98,17.43z
				 M8.98,1.43c-4.18,0-7.58,3.4-7.58,7.58s3.4,7.58,7.58,7.58s7.58-3.4,7.58-7.58S13.16,1.43,8.98,1.43z"/>
		</g>
	</g>
</g>
</svg>
