<?xml version="1.0" encoding="utf-8"?>
<!-- Generator: Adobe Illustrator 23.0.3, SVG Export Plug-In . SVG Version: 6.00 Build 0)  -->
<svg version="1.1" id="Layer_1" xmlns="http://www.w3.org/2000/svg" xmlns:xlink="http://www.w3.org/1999/xlink" x="0px" y="0px"
	 viewBox="0 0 69 100" style="enable-background:new 0 0 69 100;" xml:space="preserve">
<style type="text/css">
	.st0{opacity:0.15;}
	.st1{fill:#2B392C;}
</style>
<g class="st0">
	<polygon class="st1" points="43.49,61.84 42.67,60.41 39.76,62.09 36.15,60 39.76,57.91 42.67,59.59 43.49,58.16 41.41,56.96 
		43.5,55.76 42.68,54.33 40.59,55.53 40.59,53.13 38.94,53.13 38.94,56.49 35.32,58.57 35.32,54.4 38.23,52.72 37.4,51.3 
		35.32,52.5 35.32,50.08 33.68,50.08 33.68,52.5 31.6,51.3 30.77,52.72 33.68,54.4 33.68,58.57 30.06,56.49 30.06,53.13 
		28.41,53.13 28.41,55.53 26.32,54.33 25.5,55.76 27.59,56.96 25.51,58.16 26.33,59.59 29.24,57.91 32.85,60 29.24,62.09 
		26.33,60.41 25.51,61.84 27.59,63.04 25.5,64.24 26.32,65.67 28.41,64.47 28.41,66.87 30.06,66.87 30.06,63.51 33.68,61.43 
		33.68,65.6 30.77,67.28 31.6,68.7 33.68,67.5 33.68,69.92 35.32,69.92 35.32,67.5 37.4,68.7 38.23,67.28 35.32,65.6 35.32,61.43 
		38.94,63.51 38.94,66.87 40.59,66.87 40.59,64.47 42.68,65.67 43.5,64.24 41.41,63.04 	"/>
	<path class="st1" d="M45.4,46.94c-2.39,0-4.77,0-7.16,0c-1.43,0-2.71-0.41-3.78-1.38c-0.94-0.85-1.49-1.93-1.59-3.19
		c-0.18-2.28,0.87-4.09,2.91-5.08c0.17-0.08,0.19-0.17,0.18-0.34c-0.09-1.98,0.48-3.72,1.93-5.12c2.58-2.49,7.01-2.63,9.61,0.14
		c0.41,0.44,0.77,0.93,1.05,1.47c0.08,0.15,0.17,0.23,0.36,0.24c2.23,0.14,4.01,1.52,4.69,3.63c0.07,0.22,0.2,0.26,0.37,0.32
		c1.88,0.61,3.05,1.88,3.39,3.82c0.43,2.46-1.21,4.82-3.65,5.36c-0.38,0.08-0.77,0.12-1.17,0.12C50.16,46.94,47.78,46.94,45.4,46.94
		z"/>
	<path class="st1" d="M20.63,39.81c-1.72,0-3.44,0-5.16,0c-1.78-0.01-3.21-1.06-3.72-2.72c-0.54-1.73,0.19-3.58,1.77-4.47
		c0.27-0.15,0.33-0.31,0.34-0.62c0.01-1.39,0.52-2.58,1.55-3.52c1.13-1.04,2.49-1.5,3.99-1.38c1.53,0.12,2.8,0.8,3.64,2.14
		c0.22,0.35,0.43,0.58,0.88,0.65c1.36,0.2,2.31,0.98,2.9,2.2c0.17,0.36,0.37,0.58,0.76,0.74c2.5,1.01,3.04,4.35,1.01,6.05
		c-0.77,0.64-1.67,0.91-2.64,0.93C24.18,39.82,22.4,39.81,20.63,39.81z"/>
	<g>
		<path class="st1" d="M41.02,72c0.06-1.06,0.58-1.91,1.3-2.65c1.1-1.13,2.47-1.84,3.91-2.41c2.14-0.85,4.37-1.29,6.65-1.54
			c1.23-0.13,2.45-0.2,3.68-0.19c0.2,0,0.41-0.02,0.57,0.13c0.2,0.18,0.33,0.39,0.25,0.67c-0.09,0.33-0.32,0.53-0.66,0.56
			c-0.45,0.03-0.91,0.03-1.37,0.05c-2.89,0.09-5.73,0.54-8.45,1.54c-1.24,0.46-2.43,1.05-3.41,1.97c-0.6,0.56-1.08,1.19-1.09,2.07
			c0,0.4-0.37,0.73-0.72,0.71c-0.35-0.02-0.65-0.33-0.67-0.72C41.02,72.13,41.02,72.07,41.02,72z"/>
		<path class="st1" d="M27.98,72c-0.06-1.06-0.58-1.91-1.3-2.65c-1.1-1.13-2.47-1.84-3.91-2.41c-2.14-0.85-4.37-1.29-6.65-1.54
			c-1.23-0.13-2.45-0.2-3.68-0.19c-0.2,0-0.41-0.02-0.57,0.13c-0.2,0.18-0.33,0.39-0.25,0.67c0.09,0.33,0.32,0.53,0.66,0.56
			c0.45,0.03,0.91,0.03,1.37,0.05c2.89,0.09,5.73,0.54,8.45,1.54c1.24,0.46,2.43,1.05,3.41,1.97c0.6,0.56,1.08,1.19,1.09,2.07
			c0,0.4,0.37,0.73,0.72,0.71c0.35-0.02,0.65-0.33,0.67-0.72C27.98,72.13,27.98,72.07,27.98,72z"/>
	</g>
	<path class="st1" d="M22.8,56.07c-1.6-0.21-3.2-0.37-4.81-0.47c-1.85-0.12-3.71-0.19-5.56-0.19c-0.18,0-0.36,0.02-0.51,0.14
		c-0.24,0.2-0.33,0.5-0.22,0.8c0.12,0.33,0.36,0.44,0.69,0.44c3.26,0.01,6.51,0.18,9.74,0.59c0.19,0.02,0.37,0.05,0.56,0.08
		c0.1-0.46,0.23-0.91,0.38-1.35C22.98,56.1,22.89,56.08,22.8,56.07z"/>
	<path class="st1" d="M56.58,55.41c-3.28,0-6.54,0.31-9.75,0.97c-0.31,0.06-0.6,0.14-0.91,0.21c0.14,0.47,0.24,0.96,0.33,1.45
		c0.38-0.08,0.76-0.17,1.14-0.25c1.61-0.32,3.23-0.56,4.87-0.71c1.45-0.13,2.9-0.22,4.35-0.21c0.5,0,0.81-0.29,0.8-0.71
		C57.39,55.75,57.02,55.41,56.58,55.41z"/>
</g>
</svg>
