<?xml version="1.0" encoding="utf-8"?>
<!-- Generator: Adobe Illustrator 23.0.3, SVG Export Plug-In . SVG Version: 6.00 Build 0)  -->
<svg version="1.1" id="Layer_1" xmlns="http://www.w3.org/2000/svg" xmlns:xlink="http://www.w3.org/1999/xlink" x="0px" y="0px"
	 viewBox="0 0 69 100" style="enable-background:new 0 0 69 100;" xml:space="preserve">
<style type="text/css">
	.st0{opacity:0.15;}
	.st1{fill:#2B392C;}
</style>
<g class="st0">
	<path class="st1" d="M42.19,31.22c-0.15,0.44-0.23,0.91-0.23,1.39c0,2.46,1.98,4.45,4.43,4.45c2.44-0.01,4.41-1.99,4.41-4.44
		c0-0.49-0.08-0.96-0.23-1.4c-1.14,0.93-2.59,1.49-4.17,1.5C44.81,32.72,43.34,32.16,42.19,31.22z"/>
	<g>
		<path class="st1" d="M46.39,31.89c1.64,0,3.02-0.46,3.44-1.09h-6.89C43.37,31.43,44.75,31.89,46.39,31.89z"/>
		<rect x="42.14" y="28.2" class="st1" width="8.47" height="1.96"/>
		<path class="st1" d="M52.3,26.89c-0.73-0.63-3.1-2.39-5.91-2.39c-2.82,0-5.18,1.76-5.91,2.39l-0.01,0.65l1.35,0.44v-0.44h9.12
			v0.43l1.33-0.43L52.3,26.89z"/>
	</g>
	<polygon class="st1" points="49.75,38.18 50.09,37.25 57.75,38.4 57.75,39.35 	"/>
	<path class="st1" d="M8.86,75.5c17.09,0,34.19,0,51.28,0c0-0.86,0.01-1.72,0.01-2.58c0-5.33,0-10.66,0-16c0-0.04,0-0.09,0,0.87
		H8.86C8.86,63.06,8.86,69.28,8.86,75.5z"/>
	<path class="st1" d="M7.19,51.06c0,1.04,0,3.04,0,5.08h54.62c0-2.04,0-4.05,0-5.08H7.19z"/>
	<path class="st1" d="M37.74,46.28c0.42-0.54,0.57-1.18,0.57-1.85c0-2.45,0.01-4.9,0-7.34c-0.01-1.85-1.25-3.05-3.1-3.05
		c-1.86,0-3.9,0-6.82,0c-2.38,0-4.68,0-6.2,0c-1.37,0-2.53,0.91-2.85,2.24c-0.07,0.27-0.08,0.56-0.08,0.84
		c-0.01,2.42,0.02,4.85-0.01,7.27c-0.02,1.71,1.15,2.83,2.41,3.03c0.23,0.04,0.47,0.05,0.7,0.05c0.33,0,1.05,0,1.81,0
		c0.95,0,1.98,0,2.41,0c0,0.44,0,1.03,0,1.96h5.4c0-0.92,0-1.51,0-1.96c0.52,0,0.76,0,1.83,0c0.68,0,1.29,0,1.61-0.01
		C36.4,47.43,37.17,47.03,37.74,46.28z"/>
	<path class="st1" d="M43.01,38.18l-0.34-0.93l-2.71,0.41c0,0.32,0,0.65,0,0.97L43.01,38.18z"/>
	<path class="st1" d="M49.43,39.85l-2.21,4.93l-0.56-3.22l0.76-1.33v-0.42h-2.07v0.44l0.74,1.31l-0.56,3.22l-2.21-4.93l-3.37,0.47
		c0,0.86,0,2.71,0,3.55c0,0.52,0,1.04,0,1.56c0,0.88-0.24,1.63-0.71,2.24c-0.7,0.91-1.67,1.41-2.8,1.42c-0.26,0-0.74,0.01-1.45,0.01
		v0.32h22.75V41L49.43,39.85z"/>
	<g>
		<rect x="8.86" y="48.76" class="st1" width="9.72" height="0.65"/>
	</g>
	<g>
		<rect x="8.86" y="47.02" class="st1" width="9.72" height="0.65"/>
	</g>
	<g>
		<rect x="8.86" y="45.28" class="st1" width="9.72" height="0.65"/>
	</g>
	<g>
		<rect x="8.86" y="43.54" class="st1" width="9.72" height="0.65"/>
	</g>
</g>
</svg>
