<?xml version="1.0" encoding="utf-8"?>
<!-- Generator: Adobe Illustrator 23.0.3, SVG Export Plug-In . SVG Version: 6.00 Build 0)  -->
<svg version="1.1" id="Layer_1" xmlns="http://www.w3.org/2000/svg" xmlns:xlink="http://www.w3.org/1999/xlink" x="0px" y="0px"
	 viewBox="0 0 69 100" style="enable-background:new 0 0 69 100;" xml:space="preserve">
<style type="text/css">
	.st0{opacity:0.15;}
	.st1{fill:#2B392C;}
</style>
<g class="st0">
	<g>
		<path class="st1" d="M45.4,46.94c-2.39,0-4.77,0-7.16,0c-1.43,0-2.71-0.41-3.78-1.38c-0.94-0.85-1.49-1.93-1.59-3.19
			c-0.18-2.28,0.87-4.09,2.91-5.08c0.17-0.08,0.19-0.17,0.18-0.34c-0.09-1.98,0.48-3.72,1.93-5.12c2.58-2.49,7.01-2.63,9.61,0.14
			c0.41,0.44,0.77,0.93,1.05,1.47c0.08,0.15,0.17,0.23,0.36,0.24c2.23,0.14,4.01,1.52,4.69,3.63c0.07,0.22,0.2,0.26,0.37,0.32
			c1.88,0.61,3.05,1.88,3.39,3.82c0.43,2.46-1.21,4.82-3.65,5.36c-0.38,0.08-0.77,0.12-1.17,0.12
			C50.16,46.94,47.78,46.94,45.4,46.94z"/>
		<path class="st1" d="M20.63,39.81c-1.72,0-3.44,0-5.16,0c-1.78-0.01-3.21-1.06-3.72-2.72c-0.54-1.73,0.19-3.58,1.77-4.47
			c0.27-0.15,0.33-0.31,0.34-0.62c0.01-1.39,0.52-2.58,1.55-3.52c1.13-1.04,2.49-1.5,3.99-1.38c1.53,0.12,2.8,0.8,3.64,2.14
			c0.22,0.35,0.43,0.58,0.88,0.65c1.36,0.2,2.31,0.98,2.9,2.2c0.17,0.36,0.37,0.58,0.76,0.74c2.5,1.01,3.04,4.35,1.01,6.05
			c-0.77,0.64-1.67,0.91-2.64,0.93C24.18,39.82,22.4,39.81,20.63,39.81z"/>
		<path class="st1" d="M28.6,68.33c0.52-1.33,1.23-2.54,2.14-3.68c-0.71-0.3-1.4-0.54-2.1-0.76c-2.52-0.79-5.09-1.33-7.71-1.67
			c-2.84-0.38-5.7-0.54-8.56-0.56c-0.39,0-0.62-0.15-0.74-0.48c-0.1-0.29-0.03-0.54,0.19-0.75c0.15-0.14,0.33-0.17,0.53-0.17
			c2.1,0,4.2,0.1,6.29,0.3c2.29,0.22,4.56,0.54,6.81,1.03c2.07,0.45,4.1,1.03,6.06,1.83c0.2,0.08,0.33,0.07,0.5-0.09
			c0.96-0.95,2.04-1.76,3.15-2.52c0.1-0.06,0.19-0.13,0.3-0.21c-1.83-0.72-3.68-1.3-5.56-1.79c-2.55-0.66-5.14-1.11-7.76-1.44
			c-3.23-0.41-6.48-0.58-9.74-0.59c-0.33,0-0.58-0.11-0.69-0.44c-0.11-0.3-0.02-0.6,0.22-0.8c0.15-0.12,0.32-0.14,0.51-0.14
			c1.86,0,3.71,0.07,5.56,0.19c1.61,0.1,3.21,0.26,4.81,0.47c3.26,0.44,6.49,1.07,9.64,2.04c1.46,0.45,2.9,0.94,4.29,1.56
			c0.19,0.08,0.34,0.08,0.53-0.02c3.02-1.59,6.24-2.59,9.57-3.27c3.22-0.66,6.47-0.96,9.75-0.97c0.43,0,0.81,0.34,0.82,0.75
			c0.01,0.42-0.3,0.71-0.8,0.71c-1.45-0.01-2.91,0.08-4.35,0.21c-1.63,0.15-3.26,0.38-4.87,0.71c-2.47,0.49-4.9,1.15-7.24,2.09
			c-2.28,0.91-4.46,2.02-6.36,3.6c-1.57,1.31-2.89,2.83-3.69,4.75c-0.52,1.24-0.76,2.53-0.8,3.86c-0.01,0.39-0.23,0.71-0.53,0.78
			c-0.47,0.11-0.87-0.21-0.86-0.7c0-0.7,0.09-1.39,0.23-2.08c0.05-0.25,0.01-0.4-0.25-0.55c-1.58-0.88-3.28-1.4-5.03-1.82
			c-2.14-0.51-4.32-0.82-6.52-0.97c-1.32-0.09-2.65-0.14-3.97-0.17c-0.47-0.01-0.77-0.28-0.77-0.69c0.01-0.41,0.32-0.69,0.79-0.69
			c4.39,0.04,8.73,0.45,12.95,1.75c0.99,0.31,1.95,0.69,2.88,1.17C28.32,68.18,28.44,68.25,28.6,68.33z"/>
		<path class="st1" d="M38.94,53.05c0.73,0.49,1.29,1.11,1.81,1.79c1-0.59,1.98-1.17,2.96-1.75c0.2-0.12,0.4-0.24,0.6-0.35
			c0.39-0.2,0.77-0.11,0.97,0.22c0.21,0.34,0.11,0.75-0.26,0.99c-0.21,0.14-0.44,0.26-0.66,0.38c-0.97,0.56-1.94,1.11-2.91,1.67
			c-0.03,0.14,0.09,0.22,0.09,0.36c-0.64,0.23-1.29,0.46-1.94,0.71c-0.85,0.32-1.68,0.7-2.49,1.11c-0.2,0.1-0.37,0.1-0.57,0.02
			c-2.88-1.17-5.86-1.99-8.89-2.64c-0.17-0.04-0.33-0.07-0.5-0.09c-0.45-0.06-0.88-0.2-1.27-0.45c-0.65-0.4-1.32-0.77-1.98-1.15
			c-0.24-0.14-0.46-0.31-0.49-0.63c-0.02-0.28,0.08-0.5,0.32-0.65c0.28-0.17,0.57-0.16,0.84,0c0.47,0.26,0.94,0.54,1.4,0.81
			c0.74,0.43,1.48,0.86,2.24,1.3c0.5-0.7,1.1-1.29,1.81-1.81c-0.53-0.9-1.05-1.79-1.57-2.69c-0.21-0.37-0.43-0.73-0.64-1.1
			c-0.2-0.36-0.12-0.74,0.19-0.96c0.25-0.18,0.72-0.1,0.95,0.17c0.08,0.1,0.15,0.21,0.21,0.32c0.7,1.2,1.39,2.4,2.1,3.62
			c0.8-0.33,1.61-0.61,2.51-0.69c0-0.22,0-0.43,0-0.64c0-1.2,0-2.4,0-3.6c0-0.48,0.26-0.82,0.64-0.83c0.41-0.02,0.76,0.36,0.76,0.85
			c0,1.32,0,2.63,0,3.95c0,0.11,0,0.21,0,0.35c0.87,0.08,1.67,0.34,2.49,0.69c0.26-0.45,0.51-0.89,0.76-1.33
			c0.45-0.79,0.91-1.58,1.36-2.37c0.17-0.31,0.44-0.4,0.77-0.38c0.27,0.02,0.43,0.18,0.51,0.41c0.09,0.27,0.03,0.54-0.11,0.79
			c-0.63,1.08-1.24,2.17-1.86,3.25C39.07,52.82,39.01,52.92,38.94,53.05z"/>
		<path class="st1" d="M55.46,60.33c0.39,0,0.78,0,1.18,0c0.46,0.01,0.76,0.27,0.76,0.68c0.01,0.41-0.3,0.71-0.76,0.71
			c-1.37,0.01-2.74,0.06-4.1,0.2c-3.94,0.4-7.77,1.23-11.29,3.13c-1.74,0.94-3.3,2.12-4.37,3.84c-0.58,0.93-0.93,1.94-0.97,3.05
			c-0.01,0.14-0.03,0.27-0.06,0.41c-0.09,0.38-0.39,0.58-0.78,0.53c-0.34-0.04-0.56-0.31-0.56-0.69c0-1.1,0.25-2.13,0.73-3.12
			c0.83-1.72,2.14-3.01,3.67-4.1c2.29-1.63,4.85-2.65,7.55-3.37c2.11-0.56,4.25-0.91,6.43-1.1C53.74,60.43,54.6,60.39,55.46,60.33z"
			/>
		<path class="st1" d="M41.02,72c0.06-1.06,0.58-1.91,1.3-2.65c1.1-1.13,2.47-1.84,3.91-2.41c2.14-0.85,4.37-1.29,6.65-1.54
			c1.23-0.13,2.45-0.2,3.68-0.19c0.2,0,0.41-0.02,0.57,0.13c0.2,0.18,0.33,0.39,0.25,0.67c-0.09,0.33-0.32,0.53-0.66,0.56
			c-0.45,0.03-0.91,0.03-1.37,0.05c-2.89,0.09-5.73,0.54-8.45,1.54c-1.24,0.46-2.43,1.05-3.41,1.97c-0.6,0.56-1.08,1.19-1.09,2.07
			c0,0.4-0.37,0.73-0.72,0.71c-0.35-0.02-0.65-0.33-0.67-0.72C41.02,72.13,41.02,72.07,41.02,72z"/>
	</g>
</g>
</svg>
