<?xml version="1.0" encoding="utf-8"?>
<!-- Generator: Adobe Illustrator 23.0.3, SVG Export Plug-In . SVG Version: 6.00 Build 0)  -->
<svg version="1.1" id="Layer_1" xmlns="http://www.w3.org/2000/svg" xmlns:xlink="http://www.w3.org/1999/xlink" x="0px" y="0px"
	 viewBox="0 0 69 100" style="enable-background:new 0 0 69 100;" xml:space="preserve">
<style type="text/css">
	.st0{opacity:0.15;fill:#2B392C;}
</style>
<polygon class="st0" points="57.16,54.63 55.08,51.03 47.77,55.26 38.66,50 47.77,44.74 55.08,48.97 57.16,45.37 51.92,42.34 
	57.19,39.3 55.11,35.7 49.84,38.74 49.84,32.69 45.69,32.69 45.69,41.14 36.58,46.4 36.58,35.88 43.9,31.66 41.82,28.06 
	36.58,31.08 36.58,25 32.42,25 32.42,31.08 27.18,28.06 25.1,31.66 32.42,35.88 32.42,46.4 23.31,41.14 23.31,32.69 19.16,32.69 
	19.16,38.74 13.89,35.7 11.81,39.3 17.08,42.34 11.84,45.37 13.92,48.97 21.23,44.74 30.34,50 21.23,55.26 13.92,51.03 11.84,54.63 
	17.08,57.66 11.81,60.7 13.89,64.3 19.16,61.26 19.16,67.31 23.31,67.31 23.31,58.86 32.42,53.6 32.42,64.12 25.1,68.34 
	27.18,71.94 32.42,68.92 32.42,75 36.58,75 36.58,68.92 41.82,71.94 43.9,68.34 36.58,64.12 36.58,53.6 45.69,58.86 45.69,67.31 
	49.84,67.31 49.84,61.26 55.11,64.3 57.19,60.7 51.92,57.66 "/>
</svg>
