<?xml version="1.0" encoding="utf-8"?>
<!-- Generator: Adobe Illustrator 23.0.3, SVG Export Plug-In . SVG Version: 6.00 Build 0)  -->
<svg version="1.1" id="Layer_1" xmlns="http://www.w3.org/2000/svg" xmlns:xlink="http://www.w3.org/1999/xlink" x="0px" y="0px"
	 viewBox="0 0 69 100" style="enable-background:new 0 0 69 100;" xml:space="preserve">
<style type="text/css">
	.st0{opacity:0.15;}
	.st1{fill:#2B392C;}
</style>
<g>
	<g class="st0">
		<g>
			<g>
				<rect x="32.49" y="42" class="st1" width="4.16" height="8"/>
			</g>
			<g>
				<rect x="32.49" class="st1" width="4.16" height="8"/>
			</g>
		</g>
		<g>
			<g>
				
					<rect x="53.49" y="21" transform="matrix(6.123234e-17 -1 1 6.123234e-17 30.5656 80.5656)" class="st1" width="4.16" height="8"/>
			</g>
			<g>
				
					<rect x="11.49" y="21" transform="matrix(6.123234e-17 -1 1 6.123234e-17 -11.4344 38.5656)" class="st1" width="4.16" height="8"/>
			</g>
		</g>
		<g>
			<path class="st1" d="M35.01,39.08c-7.76,0-14.08-6.31-14.08-14.08s6.31-14.08,14.08-14.08S49.08,17.24,49.08,25
				S42.77,39.08,35.01,39.08z M35.01,15.08c-5.47,0-9.92,4.45-9.92,9.92s4.45,9.92,9.92,9.92s9.92-4.45,9.92-9.92
				S40.48,15.08,35.01,15.08z"/>
		</g>
		<g>
			<g>
				<rect x="42.99" y="39.19" transform="matrix(0.866 -0.5 0.5 0.866 -15.5556 28.3187)" class="st1" width="4.16" height="8"/>
			</g>
			<g>
				<rect x="21.99" y="2.81" transform="matrix(0.866 -0.5 0.5 0.866 -0.1826 12.9456)" class="st1" width="4.16" height="8"/>
			</g>
		</g>
		<g>
			<g>
				<rect x="50.67" y="10.5" transform="matrix(-0.5 -0.866 0.866 -0.5 66.5708 67.4347)" class="st1" width="4.16" height="8"/>
			</g>
			<g>
				<rect x="14.3" y="31.5" transform="matrix(-0.5 -0.866 0.866 -0.5 -6.1753 67.4347)" class="st1" width="4.16" height="8"/>
			</g>
		</g>
		<g>
			<g>
				<rect x="50.67" y="31.5" transform="matrix(0.5 -0.866 0.866 0.5 -4.3678 63.4347)" class="st1" width="4.16" height="8"/>
			</g>
			<g>
				<rect x="14.3" y="10.5" transform="matrix(0.5 -0.866 0.866 0.5 -4.3678 21.4347)" class="st1" width="4.16" height="8"/>
			</g>
		</g>
		<g>
			<g>
				<rect x="42.99" y="2.81" transform="matrix(-0.866 -0.5 0.5 -0.866 80.6868 35.2469)" class="st1" width="4.16" height="8"/>
			</g>
			<g>
				<rect x="21.99" y="39.19" transform="matrix(-0.866 -0.5 0.5 -0.866 23.3137 92.62)" class="st1" width="4.16" height="8"/>
			</g>
		</g>
	</g>
	<g class="st0">
		<g>
			<polygon class="st1" points="9.07,65.98 11.87,71.66 18.13,72.57 13.6,76.99 14.67,83.23 9.07,80.28 3.46,83.23 4.53,76.99 
				0,72.57 6.26,71.66 			"/>
		</g>
		<g>
			<polygon class="st1" points="60.07,65.98 62.87,71.66 69.13,72.57 64.6,76.99 65.67,83.23 60.07,80.28 54.46,83.23 55.53,76.99 
				51,72.57 57.26,71.66 			"/>
		</g>
		<g>
			<polygon class="st1" points="35.07,53.98 37.87,59.66 44.13,60.57 39.6,64.99 40.67,71.23 35.07,68.28 29.46,71.23 30.53,64.99 
				26,60.57 32.26,59.66 			"/>
		</g>
		<g>
			<rect x="33.05" y="72" class="st1" width="4.15" height="28"/>
		</g>
		<g>
			<path class="st1" d="M45.21,100h-4.15c0-8.84,3.44-17.14,9.69-23.39l2.94,2.94C48.22,85.01,45.21,92.27,45.21,100z"/>
		</g>
		<g>
			<path class="st1" d="M29.21,100h-4.15c0-7.73-3.01-14.99-8.47-20.45l2.94-2.94C25.77,82.86,29.21,91.16,29.21,100z"/>
		</g>
	</g>
</g>
</svg>
