<?xml version="1.0" encoding="utf-8"?>
<!-- Generator: Adobe Illustrator 23.0.3, SVG Export Plug-In . SVG Version: 6.00 Build 0)  -->
<svg version="1.1" id="Layer_1" xmlns="http://www.w3.org/2000/svg" xmlns:xlink="http://www.w3.org/1999/xlink" x="0px" y="0px"
	 viewBox="0 0 202 126" style="enable-background:new 0 0 202 126;" xml:space="preserve">
<style type="text/css">
	.st0{opacity:0.5;}
	.st1{fill:#2B392C;}
</style>
<g class="st0">
	<path class="st1" d="M180.41,90.34l0.12-6.27c-9.75-3.14-23.6-4.98-31.84-6.7v5.71L180.41,90.34z"/>
	<path class="st1" d="M97.72,83.08v-5.43C80.86,81.2,71.55,83.46,65.9,85L66,90.34L97.72,83.08z"/>
	<path class="st1" d="M94.53,32.67c7.34-2.87,19.41-5.96,28.57-5.96c8.27,0,16.36,1.47,24.06,4.36c2.1-4.51,2.05-10.5,0.25-15.18
		C145.92,12.03,140.44,1,123.09,1c-18.37,0-29.91,19.29-32.47,24.11c-1.92,3.61-2.58,9.27,3.28,8.16
		C94.02,33.01,94.24,32.79,94.53,32.67z M122.08,12.58c2.37,0,4.29,2.57,4.29,5.73c0,3.17-1.92,5.73-4.29,5.73s-4.29-2.57-4.29-5.73
		C117.78,15.14,119.71,12.58,122.08,12.58z"/>
	<path class="st1" d="M187.31,86.9c-1.27-0.73-2.77-1.4-4.44-2.02l-0.14,6.99c-0.01,0.36-0.17,0.7-0.45,0.93
		c-0.21,0.17-0.47,0.26-0.73,0.26c-0.09,0-0.17-0.01-0.26-0.03l-34.04-7.79c-0.54-0.12-0.92-0.61-0.92-1.18v-7.23
		c-1.64-0.47-3.1-1.24-3.32-3.03c-0.04-0.33-1.96-12.77-0.33-16.12c0.55-1.12,1.3-2.23,2.65-2.31c2.19-0.13,3.08-1.56,3.48-3.45
		c0.5-2.39,1.07-4.8,1.24-7.22c0.21-3.13-0.7-5.27-3.76-5.56c-0.06-0.01-0.11-0.09-0.19-0.17c0.07-1.51,0.21-4.19,0.29-5.61
		c-7.45-2.81-15.29-4.23-23.3-4.23c-8.47,0-20.36,2.92-27.73,5.8c-0.14,0.05-0.28,0.08-0.42,0.08c-0.04,0-0.07,0-0.11-0.01
		c-0.03,0.02-0.07,0.04-0.1,0.06c-4.81,2.74-9.65,5.44-14.5,8.11c-0.47,0.26-1.11,0.35-1.65,0.29c-4.29-0.41-7.87,0.75-10.47,4.55
		c-3.42,4.99-8,8.73-12.99,11.91c-6,3.81-12.13,7.38-18.16,11.13C25.16,78.42,14.14,86.91,4.93,97.5
		C-2.52,106.06-4.61,126,21.26,126C81.09,126,201.54,126,202,126C201.95,125.55,202,95.31,187.31,86.9z M103.04,75.04
		c-0.21,1.25-1.54,1.76-2.97,2.1v6.9c0,0.57-0.38,1.06-0.92,1.18l-34.04,7.79c-0.08,0.02-0.17,0.03-0.26,0.03
		c-0.26,0-0.52-0.09-0.73-0.26c-0.28-0.22-0.44-0.56-0.45-0.93l-0.12-6.22c-2.09,0.6-3.55,1.08-4.75,1.47
		c-5.75,1.92-4.25,1.45-8.44,2.2c-2.24,0.4-2.21-1.33-1.36-2.31c4.6-5.24,9.43-10.28,14.17-15.39c0.38-0.41,0.95-0.68,1.47-0.91
		c2.41-1.09,4.88-2.06,7.25-3.24c2.17-1.09,4.18-2.56,5.26-4.83c1.37-2.9,3.45-5.12,5.66-7.29c1.38-1.35,2.75-2.73,3.98-4.23
		c1.06-1.29,1.75-2.78,1.2-4.6c-0.07-0.25,0.28-0.79,0.56-0.97c4.1-2.5,8.2-4.98,10.81-9.37c0.07,0.53,0.16,1.01,0.2,1.5
		c0.03,0.48,0.01,0.96,0.01,1.44c-2.64,0.41-3.78,1.49-3.88,3.98c-0.15,3.46,0.46,6.84,1.6,10.09c0.39,1.1,1.14,2,2.39,2.07
		c1.68,0.09,2.7,1.06,3.36,2.51C104.5,60.92,103.2,74.12,103.04,75.04z"/>
</g>
</svg>
