<?xml version="1.0" encoding="utf-8"?>
<!-- Generator: Adobe Illustrator 23.0.3, SVG Export Plug-In . SVG Version: 6.00 Build 0)  -->
<svg version="1.1" id="Layer_1" xmlns="http://www.w3.org/2000/svg" xmlns:xlink="http://www.w3.org/1999/xlink" x="0px" y="0px"
	 viewBox="0 0 231 99" style="enable-background:new 0 0 231 99;" xml:space="preserve">
<style type="text/css">
	.st0{fill:#908876;}
</style>
<path class="st0" d="M161.39,79.85c-0.85,0-1.69,0-2.54,0c0-22.76,0-45.42,0-68.09c0.17-0.01,0.27-0.02,0.38-0.03
	c2.95-0.24,5-3.35,4.06-6.16c-0.71-2.13-2.43-3.32-4.79-3.32c-28.32,0-56.64,0-84.96,0c-0.4,0-0.82,0.02-1.21,0.11
	c-1.95,0.43-3.24,1.61-3.68,3.56c-0.42,1.85,0.12,3.45,1.58,4.71c0.85,0.73,1.86,1.07,2.98,1.15c0,22.7,0,45.35,0,68.08
	c-1.01,0-1.99-0.02-2.96,0c-1.19,0.03-1.74,0.61-1.74,1.81c0,1.41,0,2.82,0,4.23c0,1.3,0.56,1.85,1.87,1.86c0.69,0,1.37,0,2.12,0
	c-0.07,0.18-0.11,0.28-0.14,0.37c-0.43,0.85-0.68,1.82-0.68,2.84c0,1.9,0.84,3.6,2.17,4.76c0,0,0.01,0.01,0.01,0.01
	c0.02,0.02,0.04,0.04,0.06,0.05c0.03,0.02,0.05,0.05,0.08,0.07c0.02,0.01,0.03,0.03,0.05,0.04c1.08,0.87,2.46,1.39,3.96,1.39
	c2.28,0,4.29-1.22,5.4-3.03c0.38-0.6,0.65-1.26,0.79-1.98c0.09-0.43,0.14-0.87,0.14-1.32c0-0.84-0.17-1.65-0.47-2.39
	c-0.07-0.27-0.14-0.54-0.2-0.82c0.62,0,1.34,0.01,2.05,0c1.2-0.01,1.76-0.56,1.77-1.75c0.01-1.43,0.01-2.86,0-4.29
	c-0.01-1.28-0.55-1.83-1.83-1.85c-0.81-0.01-1.62,0.02-2.43-0.02c-0.16-0.01-0.45-0.21-0.46-0.33c-0.04-0.91-0.02-1.82-0.02-2.76
	c22.2,0,44.34,0,66.46,0c0,1.05,0,2.06,0,3.11c-0.54,0-1.03,0-1.52,0c-0.49,0-0.98-0.02-1.47,0.01c-1.03,0.05-1.66,0.6-1.68,1.55
	c-0.03,1.58-0.03,3.16,0,4.74c0.02,0.98,0.66,1.58,1.63,1.59c0.76,0.01,1.52,0,2.36,0c-0.09,0.22-0.13,0.36-0.19,0.48
	c-0.04,0.08-0.08,0.17-0.11,0.26c-0.23,0.54-0.39,1.13-0.46,1.74c0,0,0,0.01,0,0.01c-0.01,0.05-0.01,0.11-0.02,0.16
	c-0.01,0.07-0.01,0.14-0.02,0.21c0,0.01,0,0.02,0,0.04c-0.06,1.05,0.15,2.09,0.61,3.03c0.01,0.03,0.03,0.06,0.04,0.09
	c0.02,0.05,0.05,0.09,0.07,0.13c0.03,0.05,0.06,0.11,0.09,0.16c0.01,0.01,0.01,0.03,0.02,0.04c0.21,0.36,0.45,0.7,0.72,1.01
	c0.01,0.01,0.02,0.02,0.03,0.03c0.04,0.04,0.07,0.08,0.11,0.12c0.14,0.15,0.29,0.3,0.44,0.44c0.11,0.1,0.23,0.19,0.34,0.27
	c1.07,0.82,2.4,1.31,3.85,1.31c1.56,0,2.99-0.57,4.09-1.5c0.19-0.15,0.37-0.33,0.54-0.52c0.8-0.85,1.36-1.93,1.59-3.12
	c0.08-0.38,0.12-0.76,0.11-1.12c0-0.02,0-0.04,0-0.07c0-0.91-0.19-1.77-0.54-2.56c-0.06-0.21-0.11-0.43-0.17-0.65
	c0.63,0,1.31,0,1.98,0c1.35-0.01,1.88-0.54,1.89-1.91c0.01-1.28,0-2.56,0-3.84C163.52,80.35,163.03,79.86,161.39,79.85z
	 M78.01,94.12c-1.72,0.03-3.16-1.43-3.19-3.24c-0.03-1.65,1.45-3.08,3.18-3.08c1.75,0,3.16,1.41,3.17,3.16
	C81.17,92.62,79.7,94.09,78.01,94.12z M84.28,83.06c0,0.49,0,0.99,0,1.54c-4.17,0-8.34,0-12.58,0c0-0.52,0-1,0-1.54
	C75.88,83.06,80.05,83.06,84.28,83.06z M79.57,67.68c0,3.76,0,7.52,0,11.27c0,0.25,0,0.51,0,0.82c-1.1,0-2.09,0-3.12,0
	c0-22.66,0-45.29,0-67.99c0.94,0,1.85-0.01,2.76,0.02c0.12,0,0.29,0.19,0.34,0.33c0.06,0.17,0.02,0.38,0.02,0.57
	C79.57,31.03,79.57,49.36,79.57,67.68z M75.39,8.55c-0.64,0-1.28,0.05-1.92,0.04c-1.15-0.02-1.81-0.63-1.79-1.63
	c0.01-0.99,0.64-1.52,1.81-1.52c14.18,0,28.37,0,42.55,0c14.12,0,28.24,0,42.36,0c1.07,0,1.59,0.29,1.85,1.03
	c0.34,0.96-0.25,1.98-1.27,2.08c-0.72,0.07-1.45,0-2.17,0c-4.14,0.01-8.29,0.04-12.43,0.04c-6.34,0.01-12.68,0-19.02,0
	c-4.25,0-8.5,0-12.75,0c-4.23,0-8.46,0.01-12.68,0c-3.07-0.01-6.15-0.03-9.22-0.04c-0.83,0-1.66,0.05-2.5,0.04
	C83.94,8.58,79.67,8.56,75.39,8.55z M155.58,11.82c0,22.65,0,45.27,0,67.96c-1.05,0-2.05,0-3.1,0c0-22.65,0-45.29,0-67.96
	C153.51,11.82,154.52,11.82,155.58,11.82z M138.18,39.4c0,2.14,0,14.27,0,16.41c0,0.23,0,0.46,0,0.73c-2.65,0-5.24,0-7.87,0
	c0-3.13,0-16.24,0-19.42c1.02,0,1.98,0,2.94,0c1.16,0,1.75-0.6,1.76-1.77c0-1-0.01-2.01,0-3.01c0.02-1.56-0.62-2.85-1.64-3.97
	c-0.19-0.21-0.46-0.36-0.69-0.54c0.04-0.09,0.09-0.17,0.13-0.26c1.02,0.11,2.05,0.18,3.06,0.33c1.74,0.25,3.41,0.73,4.95,1.62
	c1.66,0.97,2.42,2.34,2.05,4.36c-0.18,0.01-0.41,0.03-0.63,0.03c-0.79,0.01-1.58-0.02-2.37,0.03c-1.14,0.07-1.66,0.62-1.68,1.75
	C138.17,36.92,138.18,38.16,138.18,39.4z M116,51.52c0,1.43,0,2.86,0,4.29c0,0.23,0,0.46,0,0.73c-2.65,0-5.22,0-7.85,0
	c0-3.11,0-16.23,0-19.43c1.03,0,2.01,0,2.99,0c1.04-0.01,1.69-0.61,1.7-1.65c0.02-1.22,0.04-2.44-0.03-3.65
	c-0.08-1.3-0.64-2.42-1.53-3.36c-0.23-0.24-0.52-0.42-0.78-0.63c0.05-0.1,0.09-0.19,0.14-0.29c1.23,0.16,2.46,0.27,3.68,0.49
	c1.53,0.27,3,0.76,4.37,1.54c1.67,0.95,2.32,2.35,1.98,4.32c-0.63,0-1.28,0-1.93,0c-0.36,0-0.73-0.01-1.09,0.01
	c-1.03,0.06-1.61,0.63-1.62,1.67C115.99,37.55,116,49.54,116,51.52z M92.23,35.97c0-1.49-0.56-2.05-2.04-2.05c-0.87,0-1.75,0-2.61,0
	c-0.49-2.02,0.28-3.53,2.4-4.63c1.9-0.99,3.97-1.42,6.08-1.58c3.25-0.25,6.48-0.16,9.59,0.97c0.62,0.22,1.22,0.5,1.8,0.82
	c1.71,0.94,2.56,2.33,2.1,4.42c-0.93,0-1.86-0.01-2.8,0c-1.21,0.01-1.84,0.65-1.84,1.86c0,3.35,0,16.7,0,20.05c0,0.23,0,0.46,0,0.74
	c-4.21,0-8.38,0-12.66,0c0-0.22,0-0.44,0-0.66C92.23,52.58,92.23,39.27,92.23,35.97z M100.15,11.79c3.19,0,6.29,0,9.44,0
	c0.02,0.15,0.05,0.29,0.06,0.43c0,2.28,0.01,4.57,0,6.85c-0.01,1.58,0.31,1.99,1.87,2.24c1.01,0.16,1.58,1.19,1.19,2.12
	c-0.27,0.64-0.91,1.04-1.57,0.99c-0.69-0.05-1.23-0.51-1.4-1.2c-0.05-0.21-0.07-0.42-0.1-0.63c-0.13-0.79-0.86-1.39-1.63-1.33
	c-0.82,0.06-1.47,0.68-1.47,1.49c0,0.59,0.11,1.17,0.18,1.82c-1.2,0.06-2.42,0.64-3.56,0.19c0.03-0.94,0.17-1.83,0.07-2.69
	c-0.19-1.62-1.15-2.77-2.59-3.49c-0.35-0.18-0.5-0.35-0.49-0.75C100.16,15.83,100.15,13.85,100.15,11.79z M124.13,21.32
	c0.81,0.05,1.37,0.71,1.38,1.5c0.01,0.76-0.56,1.44-1.32,1.59c-0.95,0.18-1.74-0.5-1.87-1.62c-0.14-1.14-1.06-1.77-2.08-1.43
	c-0.71,0.23-1.13,0.93-1.06,1.77c0.04,0.42,0.12,0.83,0.19,1.28c-1.24,0.15-2.47,0.3-3.75,0.45c0.1-0.43,0.23-0.83,0.29-1.23
	c0.33-2.2-0.69-4.11-2.68-5.1c-0.17-0.08-0.39-0.3-0.39-0.46c-0.03-1.88-0.02-3.76-0.02-5.63c0-0.19,0-0.38,0-0.62
	c3.16,0,6.29,0,9.45,0c0.01,0.17,0.04,0.33,0.04,0.49c0,2.31,0.04,4.61-0.02,6.91C122.27,20.32,122.74,21.23,124.13,21.32z
	 M119.27,37.12c0.99,0,1.96,0,2.94,0c0.99-0.01,1.66-0.47,1.69-1.44c0.05-1.53,0.03-3.07-0.15-4.59c-0.17-1.38-1.07-2.43-2.06-3.51
	c0.7,0.05,1.4,0.08,2.09,0.16c2.08,0.26,4.09,0.74,5.94,1.79c1.68,0.96,2.4,2.34,1.99,4.34c-0.89,0-1.76,0-2.63,0
	c-1.43,0.01-2.02,0.6-2.02,2.02c0,3.31,0,16.62,0,19.93c0,0.23,0,0.46,0,0.72c-2.63,0-5.18,0-7.79,0
	C119.27,53.43,119.27,40.31,119.27,37.12z M137.59,24.06c-0.48,0.4-1.04,0.49-1.62,0.23c-0.62-0.28-0.91-0.79-0.97-1.46
	c-0.1-1.16-1.07-1.82-2.1-1.46c-0.67,0.23-1.1,0.89-1.04,1.66c0.03,0.44,0.12,0.88,0.19,1.37c-1.23,0.07-2.41,0.13-3.63,0.2
	c0.73-2.85-0.17-4.96-2.87-6.25c0-2.16,0-4.33,0-6.55c3.15,0,6.27,0,9.46,0c0,0.62,0,1.21,0,1.8c0,1.9,0,3.8,0,5.7
	c0,1.37,0.38,1.82,1.75,2c0.72,0.1,1.16,0.47,1.35,1.17C138.29,23.11,138.08,23.64,137.59,24.06z M82.79,11.8c0,0,4.14,0,6.31,0
	c0,0.57,0,1.11,0,1.66c0,0.88,0,1.75,0,2.63c0,1.27,0.56,1.99,1.55,2c1.01,0.01,1.58-0.72,1.59-2.03c0-1.2,0-2.39,0-3.59
	c0-0.21,0-0.42,0-0.67c1.59,0,3.12,0,4.7,0c0.02,0.18,0.05,0.36,0.05,0.54c-0.01,2.39-0.01,4.78-0.03,7.18
	c-0.01,1,0.57,1.62,1.69,1.78c0.89,0.13,1.43,0.62,1.5,1.39c0.08,0.85-0.52,1.61-1.36,1.73c-0.8,0.12-1.56-0.42-1.74-1.26
	c-0.04-0.19-0.06-0.38-0.1-0.57c-0.14-0.8-0.86-1.39-1.63-1.33c-0.82,0.06-1.46,0.72-1.47,1.56c-0.01,0.32,0.02,0.64,0.07,0.95
	c0.05,0.29,0.15,0.57,0.24,0.94c-0.44,0.08-0.85,0.15-1.25,0.24c-1.83,0.44-3.63,0.95-5.23,2c-1.59,1.05-2.99,2.33-3.24,4.31
	c-0.19,1.51-0.11,3.07-0.05,4.6c0.03,0.73,0.78,1.22,1.63,1.24c1,0.01,2,0,3.06,0c0,0.29,0,0.52,0,0.75c0,3.31,0,16.62,0,19.93
	c0,1.45,0.56,2,2.03,2c12,0,24.01,0,36.01,0c4.08,0,8.16,0,12.24,0c1.4,0,1.99-0.57,2-1.98c0.01-3.42,0-16.83,0-20.25
	c0-0.12,0.02-0.25,0.04-0.45c0.97,0,1.92,0,2.88,0c1.16,0,1.78-0.56,1.79-1.69c0.01-1.32,0.08-2.66-0.1-3.97
	c-0.26-1.94-1.46-3.33-3.07-4.36c-0.79-0.5-1.63-0.91-2.36-1.32c0.25-0.81,0.62-1.64,0.73-2.49c0.26-2.01-0.79-3.84-2.61-4.7
	c-0.37-0.17-0.49-0.36-0.48-0.76c0.02-1.82,0.01-3.63,0.01-5.45c0-0.19,0.02-0.37,0.04-0.62c0.95,0,1.86-0.02,2.77,0.02
	c0.12,0.01,0.32,0.34,0.33,0.52c0.03,1.37,0,2.73,0.02,4.1c0.02,1.18,0.92,1.89,1.99,1.62c0.69-0.18,1.14-0.74,1.15-1.5
	c0.01-1.32,0-2.65,0.01-3.97c0-0.23,0-0.46,0-0.75c1.59,0,4.71,0,4.71,0v55.38l-66.43-0.02V11.8z M82.8,73.48c0-1.05,0-2.04,0-3.07
	c22.15,0,44.26,0,66.4,0c0,1.03,0,2.03,0,3.07C127.08,73.48,104.97,73.48,82.8,73.48z M154.12,94.11c-1.63,0.12-3.15-1.27-3.24-2.96
	c-0.1-1.85,1.14-3.24,2.99-3.35c1.73-0.1,3.2,1.21,3.3,2.94C157.28,92.5,155.93,93.99,154.12,94.11z M160.33,84.59
	c-4.18,0-8.37,0-12.62,0c0-0.52,0-1.01,0-1.53c4.21,0,8.39,0,12.62,0C160.33,83.57,160.33,84.05,160.33,84.59z"/>
</svg>
