<?xml version="1.0" encoding="utf-8"?>
<!-- Generator: Adobe Illustrator 26.3.1, SVG Export Plug-In . SVG Version: 6.00 Build 0)  -->
<svg version="1.1" id="Layer_1" xmlns="http://www.w3.org/2000/svg" xmlns:xlink="http://www.w3.org/1999/xlink" x="0px" y="0px"
	 viewBox="0 0 231 99" style="enable-background:new 0 0 231 99;" xml:space="preserve">
<style type="text/css">
	.st0{fill:#908876;}
	.st1{fill:none;stroke:#908876;stroke-width:2.8346;stroke-linejoin:bevel;stroke-miterlimit:10;}
	.st2{fill:none;stroke:#908876;stroke-width:2.8346;stroke-linecap:round;stroke-linejoin:bevel;stroke-miterlimit:10;}
</style>
<g>
	<g>
		<path class="st0" d="M104.8,8.7c1.2,0,1.9,1.8,0.4,2.2l-10.8,3.4l-0.7-1.9l10.6-3.6C104.5,8.8,104.6,8.7,104.8,8.7 M104.8,5.9
			c-0.5,0-1,0.1-1.4,0.3L92.7,9.7l-2.8,0.9l1.1,2.8l0.7,1.9l1,2.5l2.5-0.8l10.7-3.4c1.9-0.5,3.1-2.2,2.9-4.1
			C108.6,7.5,106.8,5.9,104.8,5.9L104.8,5.9z"/>
	</g>
	<path class="st1" d="M93.7,13c-2.1,1.4-2.5,5.2-2.5,5.2L85.5,47l-2.7,22.2c1.5,1.9,8.1,1.5,8.9,0l5.8-29c0,0-1.2-23.9-2.2-25.9"/>
	<path class="st1" d="M91.7,69.2v9.4c-2.1,2.7-7.6,1.8-8.9,0.5v-9.9"/>
	<path class="st1" d="M115.3,13V8c0-1.8-1.2-1.3-2.7-2s-3.9-2.1-4-3l-0.4,5.8C108.4,11,112.9,12.6,115.3,13z"/>
	<line class="st1" x1="105.5" y1="9" x2="108.3" y2="8"/>
	<g>
		<path class="st0" d="M126.3,8.7c0.1,0,0.3,0,0.5,0.1l10.6,3.6l-0.7,1.9l-10.8-3.4C124.4,10.6,125.1,8.7,126.3,8.7 M126.3,5.9
			L126.3,5.9c-2.1,0-3.9,1.6-4.1,3.7c-0.2,1.9,1,3.6,2.9,4.1l10.7,3.4l2.5,0.8l1-2.5l0.7-1.9l1.1-2.8l-2.8-0.9l-10.6-3.6
			C127.3,6,126.8,5.9,126.3,5.9L126.3,5.9z"/>
	</g>
	<path class="st1" d="M137.4,13c2.1,1.4,2.5,5.2,2.5,5.2l5.7,28.8l2.7,22.2c-1.5,1.9-8.1,1.5-8.9,0l-5.8-29c0,0,1.2-23.9,2.2-25.9"
		/>
	<path class="st1" d="M139.4,69.2v9.4c2.1,2.7,7.6,1.8,8.9,0.5v-9.9"/>
	<path class="st1" d="M115.8,13V8c0-1.8,1.2-1.3,2.7-2c1.5-0.8,3.9-2.1,4-3l0.4,5.8C122.7,11,118.2,12.6,115.8,13z"/>
	<line class="st1" x1="125.6" y1="9" x2="122.8" y2="8"/>
	<path class="st1" d="M114.7,58.5l0,22.3c0.4,0.5,0.7,0.9,1,0.9c10.2,0,19.7-1.6,20.4-3.3l-3.2-20.1c-0.4-1.7-1.7-2.5-1.7-2.5v-6.1
		c1.3-1.4,1.5-2.5,1.8-4.3l0.6-5.1"/>
	<path class="st1" d="M115.8,13c-0.5,0.1-0.7,0.1-1.3,0c-0.6-0.1-0.6,0.6-0.6,0.6l1,36l0,1.8"/>
	<path class="st2" d="M114.2,81.6c-10.2,0-18.6-1.6-19.3-3.3l3.2-20.1c0.4-1.7,1.7-2.5,1.7-2.5v-6.1c-1.3-1.4-1.5-2.5-1.8-4.3
		l-0.6-5.1"/>
	<path class="st1" d="M122.5,2.9c0-0.6,0.3-1.3-6.1-1.3h-1.6c-6.5,0-6.1,0.8-6.1,1.3"/>
	<g>
		<path class="st0" d="M115.5,52.7c1,0,1.9,1.1,1.9,2.6s-0.8,2.6-1.9,2.6c-1,0-1.9-1.1-1.9-2.6S114.5,52.7,115.5,52.7 M115.5,49.8
			c-2.7,0-4.7,2.4-4.7,5.4s2.1,5.4,4.7,5.4s4.7-2.4,4.7-5.4S118.2,49.8,115.5,49.8L115.5,49.8z"/>
	</g>
	<path class="st1" d="M131.2,55.6c-1.5,0.9-2.7,2.4-10.9,2.4v-6c8.2,0,9.4-1.5,10.9-2.4"/>
	<path class="st1" d="M99.8,55.6c1.5,0.9,2.7,2.4,10.9,2.4v-6c-8.2,0-9.4-1.5-10.9-2.4"/>
	<circle class="st0" cx="118.2" cy="17.1" r="1.1"/>
	<circle class="st0" cx="118.4" cy="24.8" r="1.1"/>
	<circle class="st0" cx="118.7" cy="32.5" r="1.1"/>
	<circle class="st0" cx="119.2" cy="47.9" r="1.1"/>
	<line class="st2" x1="153.7" y1="1.6" x2="165.7" y2="1.6"/>
	<line class="st2" x1="153.7" y1="81.7" x2="165.7" y2="81.7"/>
	<line class="st2" x1="162.2" y1="2.6" x2="162.2" y2="80.7"/>
	<line class="st2" x1="76.3" y1="80" x2="64.3" y2="80"/>
	<line class="st2" x1="76.3" y1="13.5" x2="64.3" y2="13.5"/>
	<line class="st2" x1="67.8" y1="79.3" x2="67.8" y2="14"/>
	<line class="st2" x1="136.4" y1="85.4" x2="136.4" y2="97.4"/>
	<line class="st2" x1="95.1" y1="85.4" x2="95.1" y2="97.4"/>
	<line class="st2" x1="136.4" y1="93.8" x2="95.5" y2="93.8"/>
	<circle class="st0" cx="118.9" cy="40.2" r="1.1"/>
</g>
</svg>
