<?xml version="1.0" encoding="utf-8"?>
<!-- Generator: Adobe Illustrator 25.0.1, SVG Export Plug-In . SVG Version: 6.00 Build 0)  -->
<svg version="1.1" id="Layer_1" xmlns="http://www.w3.org/2000/svg" xmlns:xlink="http://www.w3.org/1999/xlink" x="0px" y="0px"
	 viewBox="0 0 170 42" style="enable-background:new 0 0 170 42;" xml:space="preserve">
<style type="text/css">
	.st0{fill:#FFFFFF;}
</style>
<g>
	<g>
		<path class="st0" d="M21.7,35c0.3-0.8,0.4-1.7,0.5-2.5c0.1-1.7-0.1-3.5-0.6-5.2c-0.2-0.9-0.5-1.7-0.9-2.5
			c-0.1-0.2-0.2-0.4-0.3-0.6l-0.3-0.6c-0.2-0.4-0.4-0.9-0.6-1.3c-0.8-1.7-1.4-3.1-2.1-4.8c-0.7-1.8-1.2-3.8-1.4-5.7
			c-0.1-1.9,0.2-4.5,1.1-6.2c0.3-0.5,0.6-1,1-1.4c-0.6-0.6-1.7-1.8-5.4-1.3C9.3,3.3,4.5,4.4,2.5,12.4c-0.5,2.1,0.7,3.5,1.7,3.9
			c1.2,0.4,2.4,0.3,3.1,0.1c0.2-0.1,0.2-0.4,0-0.4c-0.8-0.3-2-0.9-2.1-2c-0.1-1.7,1-3.7,2.8-4.9c2.8-1.9,7.1,0.1,5.3,2.1
			c-2.9,3.3-4.5,5.9-5,8.2c-0.4,1.9,1.1,3.7,2.9,3c5.4-2.3,4.3,8.4,3.2,12.1c-0.4,1.3-1.2,4.2-1.3,5c-0.4,2.9,3.3,1.6,4.9,0.4
			c0.2-0.2,0.5-0.4,0.9-0.7c0.6-0.6,1.1-1.2,1.6-1.9C21.1,36.6,21.4,35.9,21.7,35z"/>
		<path class="st0" d="M26.4,1.1c-4.2,0.5-6,1.5-7,2.3c-0.1,0.1-0.2,0.2-0.3,0.2c0,0-0.1,0.1-0.1,0.1C19,3.9,18.9,4,18.9,4
			c-0.2,0.2-0.3,0.4-0.4,0.5C18.1,5,17.8,5.5,17.5,6c-0.8,1.7-0.9,3.6-0.6,5.3c0.3,1.8,0.8,3.6,1.5,5.3c0.7,1.7,1.5,3.4,2.3,5
			c0.2,0.4,0.4,0.8,0.7,1.2l0.3,0.6c0.1,0.2,0.2,0.4,0.3,0.6c0.4,0.9,0.8,1.8,1.1,2.7c0.6,1.8,1,3.8,0.9,5.8c0,0.5-0.1,0.9-0.1,1.4
			c0,0.2,0.3,0.4,0.4,0.2c0.9-1,1.7-2.1,2.4-3.2c2.9-4.6,4.4-7.4-3-17.6c-2.4-3.3-1.2-6,2.9-6.4c2.4-0.3,8.4,0,6.1,4.5
			c-0.9,1.8-2.5,2.4-4.2,2.5c-1.1,0-1.8-0.2-2.2-0.3c-0.2-0.1-0.4,0.1-0.3,0.3c0.3,0.6,1.3,1.6,3.6,1.7c4.6,0.2,7.1-1.8,8.6-5.5
			C40.2,5.5,36,0,26.4,1.1z"/>
	</g>
	<g>
		<g>
			<path class="st0" d="M46.8,7.3h1.4v1h-1.4V11h-1V4.3h2.8v1h-1.7V7.3z"/>
			<path class="st0" d="M54.2,11h-1.1L53,9.8h-1.3L51.5,11h-1l1.1-6.7h1.5L54.2,11z M51.8,8.9h1l-0.5-3.4L51.8,8.9z"/>
			<path class="st0" d="M59.7,8.5v0.9c0,1.1-0.5,1.7-1.6,1.7s-1.6-0.6-1.6-1.7V5.9c0-1.1,0.5-1.7,1.6-1.7s1.6,0.6,1.6,1.7v0.6h-1
				V5.8c0-0.5-0.2-0.7-0.5-0.7s-0.5,0.2-0.5,0.7v3.6c0,0.5,0.2,0.6,0.5,0.6s0.5-0.2,0.5-0.6v-1H59.7z"/>
			<path class="st0" d="M61.9,4.3h3.2v1H64V11h-1V5.3h-1.1V4.3z"/>
			<path class="st0" d="M67.4,5.9c0-1.1,0.6-1.7,1.6-1.7c1,0,1.6,0.6,1.6,1.7v3.5c0,1.1-0.6,1.7-1.6,1.7c-1,0-1.6-0.6-1.6-1.7V5.9z
				 M68.5,9.4c0,0.5,0.2,0.7,0.5,0.7s0.5-0.2,0.5-0.7V5.8c0-0.5-0.2-0.7-0.5-0.7s-0.5,0.2-0.5,0.7V9.4z"/>
			<path class="st0" d="M75.4,11c-0.1-0.2-0.1-0.3-0.1-0.8v-1c0-0.6-0.2-0.8-0.7-0.8h-0.4V11h-1V4.3h1.6c1.1,0,1.6,0.5,1.6,1.5v0.5
				c0,0.7-0.2,1.1-0.7,1.4c0.5,0.2,0.7,0.7,0.7,1.4v1c0,0.3,0,0.6,0.1,0.8H75.4z M74.2,5.3v2h0.4c0.4,0,0.6-0.2,0.6-0.7V5.9
				c0-0.5-0.2-0.7-0.5-0.7H74.2z"/>
			<path class="st0" d="M79.8,8.8l-1.3-4.5h1.1l0.8,3l0.8-3h1l-1.3,4.5V11h-1V8.8z"/>
		</g>
	</g>
	<g>
		<path class="st0" d="M58.7,15.4c-2.4,0-4.3,1.9-4.3,4.3v17.3c0,2.4,1.9,4.3,4.3,4.3c2.4,0,4.3-1.9,4.3-4.3V19.7
			C63,17.3,61.1,15.4,58.7,15.4z M60.2,36.9c0,0.8-0.7,1.5-1.5,1.5c-0.8,0-1.5-0.7-1.5-1.5V19.7c0-0.8,0.7-1.5,1.5-1.5
			c0.8,0,1.5,0.7,1.5,1.5V36.9z"/>
		<path class="st0" d="M79.3,15.4c-2.4,0-4.3,1.9-4.3,4.3v17.3c0,2.4,1.9,4.3,4.3,4.3s4.3-1.9,4.3-4.3V19.7
			C83.6,17.3,81.7,15.4,79.3,15.4z M80.8,36.9c0,0.8-0.7,1.5-1.5,1.5c-0.8,0-1.5-0.7-1.5-1.5V19.7c0-0.8,0.7-1.5,1.5-1.5
			c0.8,0,1.5,0.7,1.5,1.5V36.9z"/>
		<path class="st0" d="M100.1,15.4c-2.4,0-4.3,1.9-4.3,4.3v17.3c0,2.4,1.9,4.3,4.3,4.3s4.3-1.9,4.3-4.3V19.7
			C104.4,17.3,102.4,15.4,100.1,15.4z M101.6,36.9c0,0.8-0.7,1.5-1.5,1.5c-0.8,0-1.5-0.7-1.5-1.5V19.7c0-0.8,0.7-1.5,1.5-1.5
			c0.8,0,1.5,0.7,1.5,1.5V36.9z"/>
		<path class="st0" d="M114.2,38.1H111c-0.8,0-1.5-0.7-1.5-1.5v-1.1h4.2c0.8,0,1.4-0.6,1.4-1.4c0-0.8-0.6-1.4-1.4-1.4h-4.2V18.4h2.7
			c0.2,0,0.4,0.2,0.4,0.4v4.5c0,0.8,0.6,1.4,1.4,1.4s1.4-0.6,1.4-1.4v-4.5c0-1.7-1.4-3.1-3.1-3.1h-3.7c-0.9,0-1.7,0.8-1.7,1.7v19.2
			c0,2.4,1.9,4.3,4.3,4.3h3.2c0.8,0,1.4-0.6,1.4-1.4C115.6,38.7,115,38.1,114.2,38.1z"/>
		<path class="st0" d="M72.6,38h-4.4V17c0-0.8-0.6-1.4-1.4-1.4s-1.4,0.6-1.4,1.4v22.4c0,0.8,0.6,1.4,1.4,1.4h5.8
			c0.8,0,1.4-0.6,1.4-1.4S73.4,38,72.6,38z"/>
		<path class="st0" d="M93.8,15.7h-8.3c-0.8,0-1.4,0.6-1.4,1.4s0.6,1.4,1.4,1.4h2.8v21c0,0.8,0.6,1.4,1.4,1.4c0.8,0,1.4-0.6,1.4-1.4
			v-21h2.8c0.8,0,1.4-0.6,1.4-1.4S94.6,15.7,93.8,15.7z"/>
		<path class="st0" d="M163.2,15.4c-2.4,0-4.3,1.9-4.3,4.3v17.3c0,2.4,1.9,4.3,4.3,4.3h0c2.4,0,4.3-1.9,4.3-4.3V19.7
			C167.5,17.3,165.6,15.4,163.2,15.4z M164.8,36.9c0,0.8-0.7,1.5-1.5,1.5c-0.8,0-1.5-0.7-1.5-1.5V19.7c0-0.8,0.7-1.5,1.5-1.5
			s1.5,0.7,1.5,1.5V36.9z"/>
		<path class="st0" d="M155,15.7c-0.8,0-1.4,0.6-1.4,1.4v4.7l-3.2-5.4c-0.3-0.5-0.8-0.7-1.3-0.7c0,0-0.1,0-0.1,0
			c-0.8,0-1.4,0.6-1.4,1.4v22.2c0,0.8,0.6,1.4,1.4,1.4c0.8,0,1.4-0.6,1.4-1.4V21.9l3.2,5.4v12.1c0,0.8,0.6,1.4,1.4,1.4
			c0.8,0,1.4-0.6,1.4-1.4V17.1C156.3,16.4,155.7,15.7,155,15.7z"/>
		<path class="st0" d="M51.7,38h-4.1L53,17.5c0.1-0.4,0-0.9-0.2-1.2c-0.3-0.3-0.7-0.5-1.1-0.5h-5.9c-0.8,0-1.4,0.6-1.4,1.4
			s0.6,1.4,1.4,1.4h4.1l-5.5,20.5c-0.1,0.4,0,0.9,0.2,1.2c0.3,0.3,0.7,0.5,1.1,0.5h5.9c0.8,0,1.4-0.6,1.4-1.4
			C53.1,38.6,52.5,38,51.7,38z"/>
		<path class="st0" d="M130.7,33.1c1.8-2.1,3.2-4.8,3.2-8.6v-4.6c0-2.4-1.9-4.3-4.3-4.3H127c-0.9,0-1.7,0.8-1.7,1.7v22.2
			c0,0.8,0.6,1.4,1.4,1.4s1.4-0.6,1.4-1.4v-3.9c0,0,0,0,0,0c0.2-0.2,0.4-0.3,0.6-0.5l3,5.1c0.3,0.4,0.7,0.7,1.2,0.7
			c0.2,0,0.5-0.1,0.7-0.2c0.7-0.4,0.9-1.2,0.5-1.9L130.7,33.1z M128.1,18.4h1.5c0.8,0,1.5,0.7,1.5,1.5v4.6c0,3.3-1.4,5.6-3.1,7.4
			V18.4z"/>
		<path class="st0" d="M143.4,15.8c-0.8,0-1.4,0.6-1.4,1.4v19.7c0,0.8-0.7,1.5-1.5,1.5s-1.5-0.7-1.5-1.5V17.2c0-0.8-0.6-1.4-1.4-1.4
			c-0.8,0-1.4,0.6-1.4,1.4v19.7c0,2.4,1.9,4.3,4.3,4.3c2.4,0,4.3-1.9,4.3-4.3V17.2C144.8,16.4,144.2,15.8,143.4,15.8z"/>
	</g>
</g>
</svg>
